<?xml version="1.0" encoding="utf-8"?>
<svg version="1.1" id="Layer_1" x="0px" y="0px" width="100%" viewBox="0 0 512 512" enable-background="new 0 0 512 512" xmlns="http://www.w3.org/2000/svg">
  <path fill="#000000" opacity="1.000000" stroke="none" d=" M1.000001,197.000000 C1.000000,181.979111 1.000000,166.958206 1.386372,151.349579 C2.848919,145.764084 3.929995,140.767380 5.000417,135.768387 C9.604439,114.267120 18.882469,94.919601 33.287720,78.406166 C48.238529,61.267330 67.412407,49.983429 88.934341,43.233929 C99.175278,40.022263 110.091553,38.941109 120.719963,36.993347 C135.881210,34.214905 151.140015,34.915920 166.191360,37.216660 C182.131577,39.653278 197.374954,44.978367 211.316925,53.166840 C220.448715,58.530174 228.930435,65.000343 237.888107,71.100632 C235.098465,75.230934 233.072006,78.313927 230.963196,81.339493 C220.804703,95.914154 210.568939,110.435272 200.467163,125.049057 C191.018997,138.717300 181.633911,152.430481 172.363556,166.219681 C168.246628,172.343384 169.422913,177.158661 175.825836,181.340515 C188.095596,189.354095 200.398560,197.317642 212.738373,205.222961 C226.287521,213.903000 239.923492,222.447617 253.461899,231.144257 C259.784424,235.205643 265.966217,239.486115 272.457184,243.831543 C269.225708,247.498123 266.219330,250.736832 263.404175,254.134018 C252.476791,267.320618 241.592529,280.543091 230.731674,293.784546 C227.447937,297.788025 223.617691,301.762085 225.290161,307.594696 C228.383194,318.381500 231.822632,329.068665 234.947388,339.846741 C240.039810,357.411804 245.022629,375.008850 249.988617,392.610199 C251.166855,396.786316 256.179047,401.507172 260.312286,400.819244 C264.400940,400.138702 268.733093,398.306763 269.199951,393.213348 C269.547455,389.422180 269.566040,385.451508 268.838043,381.735748 C264.712433,360.677246 260.522766,339.626099 255.893478,318.674438 C254.446274,312.124481 256.131134,307.934540 260.950867,303.284088 C279.657776,285.234283 297.780884,266.581116 316.264618,248.297455 C324.163452,240.484131 321.788849,233.761292 314.551575,228.185150 C312.379395,226.511551 310.041809,225.051605 307.880981,223.364456 C296.226105,214.264542 284.629608,205.089706 272.961609,196.006699 C260.536407,186.334229 248.013779,176.785889 235.682449,166.995987 C234.817383,166.309204 234.445114,163.520203 235.098053,162.650818 C238.528946,158.082611 242.357864,153.812790 246.059311,149.448471 C253.569855,140.592957 261.159149,131.803040 268.583588,122.875961 C277.757629,111.845200 286.730225,100.646751 295.913727,89.623940 C305.017822,78.696419 314.448181,68.035194 323.336945,56.938007 C325.386261,54.379562 327.481995,49.975689 326.634216,47.372875 C324.891663,42.023075 328.228149,41.813519 331.189056,41.067799 C346.818909,37.131386 362.528473,34.752308 378.840942,35.785889 C390.630951,36.532917 402.075134,38.335564 413.274780,41.746906 C442.038025,50.507988 465.678314,66.957001 484.024933,90.672638 C496.040466,106.204437 504.832123,123.494392 509.024567,142.880692 C510.331573,148.924377 511.673859,154.960434 513.000000,161.000000 C513.000000,170.687561 513.000000,180.375122 512.607788,190.676193 C511.751190,195.011108 511.682129,198.834152 510.756012,202.436874 C505.978546,221.021698 498.603271,238.575073 488.969788,255.157959 C472.979889,282.682648 452.966888,307.203583 431.665314,330.675507 C422.359802,340.929138 412.422424,350.655548 402.282349,360.095337 C384.821198,376.350647 367.175354,392.421112 349.226013,408.133942 C336.476257,419.295044 323.381134,430.107239 309.933655,440.414337 C292.618134,453.686096 274.796204,466.297119 257.281769,479.127258 C253.650955,476.776276 250.187164,474.717834 246.917206,472.387390 C216.397141,450.635956 185.952316,428.773315 157.661789,404.117645 C142.435410,390.847565 127.016060,377.749939 112.492279,363.736572 C98.208313,349.954590 84.753746,335.290436 71.312309,320.666779 C63.814751,312.509766 56.643116,303.969177 50.120396,295.021362 C41.872120,283.706451 33.963806,272.083435 26.754528,260.085205 C15.452723,241.275909 6.560365,221.382187 2.928418,199.478394 C2.777903,198.570633 1.664703,197.822495 1.000001,197.000000 z"/>
</svg>