<?xml version="1.0" encoding="utf-8"?>
<svg version="1.1" id="Layer_1" x="0px" y="0px" width="100%" viewBox="0 0 512 512" enable-background="new 0 0 512 512" xmlns="http://www.w3.org/2000/svg">
  <path fill="#FDC001" opacity="1.000000" stroke="none" d=" M257.987610,483.166443 C260.720581,482.773926 263.446167,482.105164 266.187683,482.031494 C294.656311,481.266632 321.628326,474.439911 347.725861,463.153229 C364.974701,455.693451 380.813477,446.023132 395.546356,434.624023 C410.520935,423.037964 423.750244,409.630829 435.330750,394.464294 C445.046417,381.740082 453.471008,368.340576 460.387360,354.011047 C469.423584,335.289581 475.657654,315.597931 478.982452,295.038300 C480.070862,288.307922 481.010193,281.553436 482.302185,274.035156 C482.725006,267.118469 483.012360,260.975159 482.954681,254.835098 C482.908264,249.894501 482.444397,244.957825 482.165771,240.019409 C478.675629,206.672455 469.804077,174.985992 452.731049,145.657654 C461.919006,140.479904 470.875793,135.432404 480.054535,130.259842 C493.419067,154.353119 503.265259,178.923080 508.003235,205.396057 C509.089325,211.464401 509.999329,217.564209 511.078247,223.633926 C511.207245,224.359558 511.891449,224.986526 512.659180,225.329620 C513.000000,245.687561 513.000000,266.375122 512.652527,287.203369 C511.874115,288.187164 511.204956,288.988464 511.048615,289.879700 C509.254547,300.107178 508.336121,310.564209 505.635834,320.540985 C499.981415,341.432068 492.409088,361.626526 481.854126,380.689392 C466.685760,408.084290 447.132446,431.739471 423.442474,452.123199 C405.490356,467.569885 385.805542,480.182983 364.249237,490.026154 C340.824005,500.722687 316.503754,508.053986 290.903625,511.087097 C290.203339,511.170044 289.631683,512.338074 289.000000,513.000000 C278.979095,513.000000 268.958221,513.000000 258.468536,512.531372 C257.995697,502.430603 257.991638,492.798523 257.987610,483.166443 z"/>
  <path fill="#FFDA2D" opacity="1.000000" stroke="none" d=" M259.961395,31.836102 C256.132965,31.890720 252.304718,31.973372 248.476105,31.995377 C224.604965,32.132584 201.670761,37.386856 179.373230,45.373844 C161.667450,51.716076 144.961227,60.321621 129.579514,71.183525 C113.851151,82.290222 99.405876,94.842903 86.768745,109.543488 C74.303856,124.043694 63.609547,139.686035 55.172356,156.721237 C45.322163,176.609406 38.767056,197.629532 34.786087,219.594711 C31.416006,238.189301 30.985367,256.872528 32.286869,275.418396 C34.050831,300.554077 40.587128,324.761749 50.823563,347.990448 C55.275078,358.091919 56.991451,355.283844 46.723263,360.663086 C40.296021,364.030121 33.685215,367.046722 26.220654,370.675659 C21.387743,358.040680 16.034910,345.993042 12.202810,333.479706 C8.380424,320.998108 6.073915,308.051666 3.123206,295.304321 C2.587219,292.988800 2.149452,290.650513 1.333169,288.661377 C1.000000,267.979095 1.000000,246.958206 1.336802,225.801193 C2.114758,224.662796 2.758537,223.700500 2.965433,222.652008 C4.844565,213.129166 6.331899,203.517715 8.533763,194.072037 C14.366184,169.051773 24.502977,145.748047 37.701820,123.777039 C51.552101,100.721642 68.986481,80.726387 89.291969,63.071598 C107.154816,47.540596 126.715942,34.899403 148.160034,24.892466 C172.072311,13.733747 196.904755,6.075428 223.120483,2.920013 C223.813980,2.836543 224.376434,1.664431 225.000000,1.000000 C235.687561,1.000000 246.375122,1.000000 257.531311,1.468657 C257.999298,9.993105 257.875610,18.052137 258.087616,26.102327 C258.138367,28.028698 259.306946,29.925629 259.961395,31.836102 z"/>
  <path fill="#FFDA2D" opacity="1.000000" stroke="none" d=" M257.558441,483.092224 C257.991638,492.798523 257.995697,502.430603 257.999878,512.531372 C247.645767,513.000000 237.291550,513.000000 226.468658,513.000000 C225.373779,512.335693 224.794312,511.144135 224.114548,511.083862 C204.799820,509.371918 186.320969,504.050720 168.241821,497.490845 C157.819000,493.709015 147.899841,488.539093 137.435120,483.606689 C145.120544,475.867310 150.411560,466.686951 154.835861,456.922577 C160.075195,459.615875 165.078018,463.014404 170.599564,464.866211 C185.375504,469.821686 200.244247,474.621918 215.334106,478.472900 C223.943970,480.670105 233.047760,480.987885 241.949966,481.961578 C246.987991,482.512634 252.068130,482.678619 257.558441,483.092224 z"/>
  <path fill="#FDBF01" opacity="1.000000" stroke="none" d=" M260.426483,31.913988 C259.306946,29.925629 258.138367,28.028698 258.087616,26.102327 C257.875610,18.052137 257.999298,9.993105 257.999939,1.468657 C267.687561,1.000000 277.375122,1.000000 287.531342,1.000002 C288.636505,1.662808 289.217499,2.838552 289.917572,2.914354 C316.042358,5.743125 340.813843,13.272484 364.618683,24.213160 C366.508881,25.081884 368.400452,25.947611 370.522888,27.289196 C365.308716,34.145473 359.824219,40.494846 354.444824,46.932026 C353.110046,48.529251 352.115570,50.410866 350.964691,52.161751 C336.782867,47.363976 322.754669,42.021580 308.364258,37.963467 C299.061615,35.340111 289.260498,34.353691 279.622253,33.098354 C273.435608,32.292572 267.138916,32.331558 260.426483,31.913988 z"/>
  <path fill="#00D7DF" opacity="1.000000" stroke="none" d=" M256.983093,348.848724 C229.319611,348.899017 201.638443,349.568939 173.998962,348.779144 C155.948624,348.263336 139.647873,341.870209 125.319717,330.085938 C110.763680,318.114258 101.868607,302.767151 98.293915,284.991394 C93.785812,262.574066 97.708992,240.948685 111.531250,222.113724 C124.076889,205.018311 140.702423,193.767380 161.884781,190.055176 C166.100708,189.316330 168.232132,187.931747 169.195389,183.130325 C172.542770,166.445267 180.475662,152.426147 193.938843,141.333496 C209.944931,128.145706 228.174576,123.751923 248.276123,125.058815 C250.961960,125.233437 253.597092,126.187935 256.625397,127.424744 C256.991089,201.661713 256.987091,275.255219 256.983093,348.848724 z"/>
  <path fill="#00B2CC" opacity="1.000000" stroke="none" d=" M257.447357,348.923035 C256.987091,275.255219 256.991089,201.661713 256.988892,127.609238 C267.723602,128.813797 276.716949,134.067047 285.176056,140.587982 C295.305847,148.396851 302.022034,158.681030 307.002197,170.202484 C308.581940,173.857193 309.398834,177.841644 310.494537,181.444168 C330.968903,185.628708 346.157593,196.423691 353.849396,216.107529 C355.702515,220.849823 358.435211,222.432251 362.806274,222.992401 C389.690857,226.437729 411.577698,247.596359 416.035706,274.294281 C419.322144,293.976227 414.898163,311.460938 401.841339,326.766083 C391.321014,339.097961 378.191925,347.296478 362.082947,347.788666 C327.379242,348.848999 292.637695,348.669495 257.447357,348.923035 z"/>
  <path fill="#213F7C" opacity="1.000000" stroke="none" d=" M403.977509,16.124958 C426.083557,16.672911 443.727661,25.495901 454.517761,45.189793 C466.164856,66.447823 465.362823,87.754837 451.064453,107.578758 C439.870941,123.097969 424.374054,131.277588 404.434265,130.460098 C403.988495,92.003555 403.983002,54.064259 403.977509,16.124958 z"/>
  <path fill="#213F7C" opacity="1.000000" stroke="none" d=" M154.918610,456.525818 C150.411560,466.686951 145.120544,475.867310 137.065338,483.547424 C126.064316,492.295990 114.000313,497.559082 99.434143,496.460083 C98.988304,458.003540 98.982773,420.064240 98.977242,382.124939 C120.879036,382.675598 138.114120,391.509949 149.367828,410.742310 C157.729233,425.031799 159.076782,440.260986 154.918610,456.525818 z"/>
  <path fill="#44569B" opacity="1.000000" stroke="none" d=" M98.549255,382.077972 C98.982773,420.064240 98.988304,458.003540 98.979317,496.401550 C74.567917,497.931519 50.254280,479.356659 44.082962,454.859894 C37.090557,427.103973 49.022934,402.101654 73.148384,388.513763 C80.761406,384.225983 89.347687,382.469391 98.549255,382.077972 z"/>
  <path fill="#44569B" opacity="1.000000" stroke="none" d=" M403.549500,16.077976 C403.983002,54.064259 403.988495,92.003555 403.979431,130.401550 C379.257141,131.943451 354.959351,112.957237 348.953522,88.248917 C346.019958,76.180130 346.660126,64.490494 350.953613,52.539253 C352.115570,50.410866 353.110046,48.529251 354.444824,46.932026 C359.824219,40.494846 365.308716,34.145473 370.853394,27.450216 C380.550842,20.177359 391.323212,16.618315 403.549500,16.077976 z"/>
  <path fill="#FEC813" opacity="1.000000" stroke="none" d=" M482.094391,240.482025 C482.444397,244.957825 482.908264,249.894501 482.954681,254.835098 C483.012360,260.975159 482.725006,267.118469 482.377075,273.610992 C482.119293,262.955963 482.071136,251.950302 482.094391,240.482025 z"/>
</svg>