<?xml version="1.0" standalone="no"?>
<!DOCTYPE svg PUBLIC "-//W3C//DTD SVG 20010904//EN"
 "http://www.w3.org/TR/2001/REC-SVG-20010904/DTD/svg10.dtd">
<svg version="1.0" xmlns="http://www.w3.org/2000/svg"
 width="512.000000pt" height="512.000000pt" viewBox="0 0 512.000000 512.000000"
 preserveAspectRatio="xMidYMid meet">
<g transform="translate(0.000000,512.000000) scale(0.100000,-0.100000)"
fill="#000000" stroke="none">
<path d="M1840 4899 c-44 -18 -90 -59 -113 -102 -21 -40 -22 -56 -25 -284 l-3
-243 -448 0 -447 0 -51 -25 c-32 -16 -61 -41 -79 -67 -26 -37 -29 -49 -29
-124 0 -75 3 -86 30 -125 17 -23 50 -53 74 -66 l44 -23 1767 0 1767 0 44 23
c27 14 57 42 77 73 32 47 34 53 30 125 -4 95 -34 145 -111 184 l-51 25 -447 0
-448 0 -3 243 c-3 237 -4 243 -28 287 -14 24 -45 58 -68 75 l-44 30 -706 2
c-451 1 -716 -2 -732 -8z m1140 -524 l0 -105 -420 0 -420 0 0 105 0 105 420 0
420 0 0 -105z"/>
<path d="M975 3611 c-49 -23 -89 -64 -109 -113 -14 -33 -16 -180 -16 -1287 0
-1353 -1 -1318 55 -1466 79 -210 268 -401 476 -479 151 -57 135 -56 1179 -56
1044 0 1028 -1 1179 56 206 78 397 269 475 475 58 154 56 107 56 1471 0 1198
-1 1255 -19 1293 -69 150 -284 168 -377 33 l-29 -41 -5 -1261 c-5 -1371 -1
-1271 -59 -1383 -49 -98 -175 -183 -297 -203 -78 -13 -1770 -13 -1848 0 -124
20 -247 104 -298 203 -57 112 -53 12 -58 1383 l-5 1261 -29 41 c-56 82 -180
115 -271 73z"/>
<path d="M2035 3184 c-44 -24 -75 -55 -96 -96 -18 -36 -19 -71 -19 -846 l0
-809 23 -44 c13 -24 43 -57 66 -74 39 -27 50 -30 125 -30 75 0 87 3 124 29 26
18 51 47 67 79 l25 51 0 796 0 796 -25 51 c-16 32 -41 61 -67 79 -35 25 -52
29 -117 32 -55 2 -84 -2 -106 -14z"/>
<path d="M2895 3186 c-44 -20 -83 -60 -105 -108 -19 -41 -20 -74 -20 -839 l0
-795 25 -51 c38 -75 89 -107 179 -111 91 -4 146 22 194 92 l32 48 0 815 c0
884 3 840 -54 901 -52 58 -175 81 -251 48z"/>
</g>
</svg>
