<?xml version="1.0" standalone="no"?>
<!DOCTYPE svg PUBLIC "-//W3C//DTD SVG 20010904//EN"
 "http://www.w3.org/TR/2001/REC-SVG-20010904/DTD/svg10.dtd">
<svg version="1.0" xmlns="http://www.w3.org/2000/svg"
 width="512.000000pt" height="512.000000pt" viewBox="0 0 512.000000 512.000000"
 preserveAspectRatio="xMidYMid meet">
<g transform="translate(0.000000,512.000000) scale(0.100000,-0.100000)"
fill="#000000" stroke="none">
<path d="M2435 5096 c-28 -13 -69 -44 -91 -69 -79 -90 -74 18 -74 -1525 l0
-1377 -337 337 c-362 361 -378 374 -487 385 -114 12 -235 -58 -287 -164 -29
-61 -31 -177 -5 -238 26 -58 1212 -1246 1281 -1283 41 -21 63 -26 125 -25 48
0 89 6 115 17 58 25 1256 1223 1287 1286 31 64 30 177 -1 243 -33 67 -110 133
-179 153 -68 20 -154 13 -215 -17 -27 -13 -163 -142 -379 -357 l-338 -337 0
1377 c0 1543 5 1435 -74 1525 -57 65 -122 93 -216 93 -58 0 -87 -6 -125 -24z"/>
<path d="M176 1690 c-63 -25 -122 -81 -152 -145 -23 -48 -24 -58 -24 -296 0
-265 9 -344 54 -477 125 -367 412 -633 804 -745 l77 -22 1575 -3 c1138 -2
1597 0 1655 8 380 55 730 332 875 693 67 167 73 206 78 506 5 314 2 330 -76
413 -104 111 -281 118 -397 16 -84 -74 -88 -90 -96 -358 -5 -178 -11 -248 -24
-290 -60 -194 -204 -336 -401 -397 -56 -17 -132 -18 -1564 -18 -1432 0 -1508
1 -1564 18 -197 61 -341 203 -401 397 -13 42 -19 112 -24 290 -8 268 -12 284
-96 358 -81 71 -198 91 -299 52z"/>
</g>
</svg>
