<?xml version="1.0" standalone="no"?>
<!DOCTYPE svg PUBLIC "-//W3C//DTD SVG 20010904//EN"
 "http://www.w3.org/TR/2001/REC-SVG-20010904/DTD/svg10.dtd">
<svg version="1.0" xmlns="http://www.w3.org/2000/svg"
 width="512.000000pt" height="512.000000pt" viewBox="0 0 512.000000 512.000000"
 preserveAspectRatio="xMidYMid meet">
<g transform="translate(0.000000,512.000000) scale(0.100000,-0.100000)"
fill="#000000" stroke="none">
<path d="M4420 5087 c-110 -37 -159 -74 -340 -253 l-175 -174 383 -382 383
-383 177 180 c186 188 222 239 256 354 20 68 21 217 1 290 -47 178 -211 340
-385 380 -81 19 -227 13 -300 -12z"/>
<path d="M2827 3582 c-471 -471 -857 -860 -857 -862 0 -3 -36 -186 -80 -405
-47 -234 -78 -411 -75 -427 8 -34 48 -74 83 -81 24 -5 741 130 817 153 20 7
313 293 885 865 l855 855 -380 380 c-209 209 -382 380 -385 380 -3 0 -391
-386 -863 -858z"/>
<path d="M485 4244 c-177 -43 -339 -174 -420 -339 -69 -140 -65 -21 -65 -1783
0 -1783 -6 -1645 73 -1797 61 -118 155 -208 282 -271 l98 -49 1661 -3 c1653
-2 1660 -2 1722 18 204 68 375 259 419 468 12 55 15 227 15 983 l0 915 -26 53
c-38 75 -86 105 -179 109 -76 4 -116 -8 -163 -52 -60 -54 -57 3 -62 -996 -5
-865 -6 -917 -24 -952 -25 -51 -87 -105 -134 -118 -28 -7 -510 -9 -1569 -8
l-1528 3 -47 28 c-31 18 -57 44 -75 75 l-28 47 -3 1528 c-2 1093 1 1541 9
1570 16 63 92 132 158 146 36 8 326 11 930 11 l878 0 44 23 c24 13 58 43 74
66 27 39 30 50 30 125 0 75 -3 87 -29 124 -18 26 -47 51 -79 67 l-51 25 -925
-1 c-772 -1 -936 -3 -986 -15z"/>
</g>
</svg>
