<?xml version="1.0" encoding="utf-8"?>
<svg version="1.1" id="Layer_1" x="0px" y="0px" width="100%" viewBox="0 0 512 512" enable-background="new 0 0 512 512" xmlns="http://www.w3.org/2000/svg">
  <path fill="#000000" opacity="1.000000" stroke="none" d=" M407.000000,513.000000 C307.312439,513.000000 207.624878,513.000000 107.334045,512.615845 C92.082787,510.058960 80.298515,502.901917 70.433258,491.999603 C59.472397,479.886505 54.106552,465.554993 54.086948,449.533783 C53.930965,322.073059 53.988712,194.612076 54.042740,67.151199 C54.044823,62.236370 54.037941,57.175972 55.123859,52.432625 C59.585094,32.945671 69.992958,17.517958 87.983467,8.128749 C93.940033,5.020028 100.639954,3.335620 107.000000,1.000001 C190.020889,1.000000 273.041779,1.000000 356.623322,1.346570 C358.957001,2.796668 361.100922,3.567526 362.439911,5.060373 C368.777161,12.125900 374.841156,19.435511 381.103607,26.569395 C389.011139,35.577290 396.978241,44.533661 404.988007,53.450813 C420.264496,70.457817 435.502319,87.500992 450.938263,104.362495 C456.879608,110.852547 460.243591,117.560226 460.213806,126.975540 C459.876678,233.601273 460.013428,340.228485 459.957031,446.855255 C459.954437,451.769775 459.962616,456.830078 458.875916,461.572754 C454.411530,481.056580 444.005890,496.484558 426.015167,505.871490 C420.058563,508.979431 413.359558,510.664398 407.000000,513.000000 M218.500000,22.000000 C185.167496,22.000000 151.834549,21.905745 118.502777,22.062124 C109.461601,22.104544 100.861298,24.741199 93.576790,30.089975 C80.996254,39.327442 76.057060,52.587952 76.047089,67.700226 C75.964088,193.530457 75.958488,319.360840 76.127251,445.190887 C76.135361,451.241150 77.358124,457.482208 79.117767,463.301025 C84.103355,479.787445 100.657440,491.091644 117.230293,491.067139 C211.061157,490.928345 304.892334,491.023590 398.723358,490.968445 C409.738007,490.961975 418.740021,485.808624 426.134796,478.204132 C435.091644,468.993286 437.929382,457.140137 437.941742,444.730957 C438.044464,341.566864 438.000000,238.402664 438.000000,135.238495 C438.000000,133.617935 438.000000,131.997391 438.000000,130.000000 C435.973541,130.000000 434.349915,130.000000 432.726257,130.000000 C407.226868,130.000000 381.727295,130.059036 356.228241,129.966949 C347.674683,129.936050 341.659912,126.517754 341.831848,116.004524 C342.314148,86.513115 342.000000,57.008694 342.000000,27.509407 C342.000000,25.743847 342.000000,23.978287 342.000000,22.000000 C300.786133,22.000000 260.143066,22.000000 218.500000,22.000000 M364.000000,102.400208 C364.000000,104.173302 364.000000,105.946388 364.000000,107.593819 C383.976990,107.593819 403.447144,107.593819 423.551361,107.593819 C403.586060,85.089142 384.105682,63.131088 364.000000,40.468174 C364.000000,61.518497 364.000000,81.470879 364.000000,102.400208 z"/>
  <path fill="#FFFFFF" opacity="1.000000" stroke="none" d=" M219.000000,22.000000 C260.143066,22.000000 300.786133,22.000000 342.000000,22.000000 C342.000000,23.978287 342.000000,25.743847 342.000000,27.509407 C342.000000,57.008694 342.314148,86.513115 341.831848,116.004524 C341.659912,126.517754 347.674683,129.936050 356.228241,129.966949 C381.727295,130.059036 407.226868,130.000000 432.726257,130.000000 C434.349915,130.000000 435.973541,130.000000 438.000000,130.000000 C438.000000,131.997391 438.000000,133.617935 438.000000,135.238495 C438.000000,238.402664 438.044464,341.566864 437.941742,444.730957 C437.929382,457.140137 435.091644,468.993286 426.134796,478.204132 C418.740021,485.808624 409.738007,490.961975 398.723358,490.968445 C304.892334,491.023590 211.061157,490.928345 117.230293,491.067139 C100.657440,491.091644 84.103355,479.787445 79.117767,463.301025 C77.358124,457.482208 76.135361,451.241150 76.127251,445.190887 C75.958488,319.360840 75.964088,193.530457 76.047089,67.700226 C76.057060,52.587952 80.996254,39.327442 93.576790,30.089975 C100.861298,24.741199 109.461601,22.104544 118.502777,22.062124 C151.834549,21.905745 185.167496,22.000000 219.000000,22.000000 M297.500000,282.000000 C242.001419,282.000000 186.502777,281.975800 131.004395,282.080475 C128.552399,282.085114 125.693581,282.670898 123.732719,284.017548 C118.904816,287.333221 118.039055,291.174103 119.950676,296.808380 C121.586937,301.631104 125.028755,303.982178 130.744690,303.989594 C151.244156,304.016144 171.743668,304.000000 192.243164,304.000000 C253.741653,304.000000 315.240143,304.004944 376.738647,303.994019 C384.792725,303.992615 390.314178,299.356445 389.663269,292.430695 C389.044586,285.847748 385.248810,281.938568 376.997955,281.966827 C350.832245,282.056488 324.666016,282.000000 297.500000,282.000000 M317.500000,178.000000 C258.693817,178.000000 199.887634,177.999985 141.081451,178.000000 C137.083298,178.000000 133.083603,177.929703 129.087357,178.017029 C123.519592,178.138687 119.105438,182.637680 119.000031,188.162949 C118.858383,195.588867 123.850983,199.995331 132.489426,199.996033 C213.452103,200.002701 294.414764,200.000015 375.377441,200.000000 C376.043793,200.000000 376.712097,200.032974 377.376221,199.994598 C384.868774,199.561417 390.218994,194.668289 389.612549,188.308151 C389.053497,182.445831 385.018280,177.673111 376.969788,177.856125 C357.488831,178.299118 337.991028,178.000000 317.500000,178.000000 M303.500000,230.000000 C246.177338,230.000000 188.854675,229.997391 131.532013,230.003098 C123.735870,230.003860 118.925102,234.511780 119.000023,241.692902 C119.064751,247.898407 123.956375,251.999603 131.300430,251.999649 C213.118591,252.000198 294.936768,251.999985 376.754913,251.999969 C377.754730,251.999969 378.755920,252.033966 379.754089,251.993439 C384.009735,251.820694 389.024689,246.771240 389.235382,242.132935 C389.638824,233.251770 383.602631,229.998093 376.986542,229.998871 C352.824371,230.001755 328.662170,230.000000 303.500000,230.000000 M389.023224,345.893036 C390.757629,339.835083 384.508820,333.837921 378.399811,333.857483 C308.576172,334.081482 238.751511,334.000000 168.927124,334.000000 C155.762146,334.000000 142.596985,333.958679 129.432266,334.018250 C123.270782,334.046143 118.887581,338.682312 119.000038,344.823059 C119.130142,351.927277 124.082176,355.996948 132.656631,355.997406 C213.479599,356.001801 294.302551,356.000000 375.125519,355.999969 C375.958740,355.999969 376.795929,356.052643 377.624603,355.990997 C384.469360,355.481720 388.355743,352.297760 389.023224,345.893036 M119.260735,115.208290 C117.566811,124.348434 122.890572,129.776031 131.488998,129.871201 C161.464111,130.202911 191.445801,130.108261 221.423508,129.929153 C229.732697,129.879517 235.355743,123.334869 233.986801,116.259674 C232.830582,110.283997 228.295425,107.071861 219.919571,107.041092 C190.940475,106.934647 161.959274,106.851196 132.982574,107.135872 C127.700935,107.187759 121.750809,107.832581 119.260735,115.208290 M179.500000,384.000000 C163.855637,384.000000 148.209030,383.840057 132.567719,384.058594 C122.824020,384.194702 118.692924,389.552002 118.998764,396.234619 C119.285881,402.508301 124.262657,406.873779 132.545700,406.926666 C161.836060,407.113800 191.128983,407.103882 220.419540,406.931305 C228.441071,406.884033 233.365585,402.679535 234.036560,396.772949 C234.671188,391.186310 230.511658,384.036530 220.443024,384.008972 C207.128784,383.972565 193.814346,384.000000 179.500000,384.000000 z"/>
  <path fill="#FFFFFF" opacity="1.000000" stroke="none" d=" M364.000000,101.911736 C364.000000,81.470879 364.000000,61.518497 364.000000,40.468174 C384.105682,63.131088 403.586060,85.089142 423.551361,107.593819 C403.447144,107.593819 383.976990,107.593819 364.000000,107.593819 C364.000000,105.946388 364.000000,104.173302 364.000000,101.911736 z"/>
  <path fill="#000000" opacity="1.000000" stroke="none" d=" M298.000000,282.000000 C324.666016,282.000000 350.832245,282.056488 376.997955,281.966827 C385.248810,281.938568 389.044586,285.847748 389.663269,292.430695 C390.314178,299.356445 384.792725,303.992615 376.738647,303.994019 C315.240143,304.004944 253.741653,304.000000 192.243164,304.000000 C171.743668,304.000000 151.244156,304.016144 130.744690,303.989594 C125.028755,303.982178 121.586937,301.631104 119.950676,296.808380 C118.039055,291.174103 118.904816,287.333221 123.732719,284.017548 C125.693581,282.670898 128.552399,282.085114 131.004395,282.080475 C186.502777,281.975800 242.001419,282.000000 298.000000,282.000000 z"/>
  <path fill="#000000" opacity="1.000000" stroke="none" d=" M318.000000,178.000000 C337.991028,178.000000 357.488831,178.299118 376.969788,177.856125 C385.018280,177.673111 389.053497,182.445831 389.612549,188.308151 C390.218994,194.668289 384.868774,199.561417 377.376221,199.994598 C376.712097,200.032974 376.043793,200.000000 375.377441,200.000000 C294.414764,200.000015 213.452103,200.002701 132.489426,199.996033 C123.850983,199.995331 118.858383,195.588867 119.000031,188.162949 C119.105438,182.637680 123.519592,178.138687 129.087357,178.017029 C133.083603,177.929703 137.083298,178.000000 141.081451,178.000000 C199.887634,177.999985 258.693817,178.000000 318.000000,178.000000 z"/>
  <path fill="#000000" opacity="1.000000" stroke="none" d=" M304.000000,230.000000 C328.662170,230.000000 352.824371,230.001755 376.986542,229.998871 C383.602631,229.998093 389.638824,233.251770 389.235382,242.132935 C389.024689,246.771240 384.009735,251.820694 379.754089,251.993439 C378.755920,252.033966 377.754730,251.999969 376.754913,251.999969 C294.936768,251.999985 213.118591,252.000198 131.300430,251.999649 C123.956375,251.999603 119.064751,247.898407 119.000023,241.692902 C118.925102,234.511780 123.735870,230.003860 131.532013,230.003098 C188.854675,229.997391 246.177338,230.000000 304.000000,230.000000 z"/>
  <path fill="#000000" opacity="1.000000" stroke="none" d=" M389.012451,346.296082 C388.355743,352.297760 384.469360,355.481720 377.624603,355.990997 C376.795929,356.052643 375.958740,355.999969 375.125519,355.999969 C294.302551,356.000000 213.479599,356.001801 132.656631,355.997406 C124.082176,355.996948 119.130142,351.927277 119.000038,344.823059 C118.887581,338.682312 123.270782,334.046143 129.432266,334.018250 C142.596985,333.958679 155.762146,334.000000 168.927124,334.000000 C238.751511,334.000000 308.576172,334.081482 378.399811,333.857483 C384.508820,333.837921 390.757629,339.835083 389.012451,346.296082 z"/>
  <path fill="#000000" opacity="1.000000" stroke="none" d=" M119.563065,114.927399 C121.750809,107.832581 127.700935,107.187759 132.982574,107.135872 C161.959274,106.851196 190.940475,106.934647 219.919571,107.041092 C228.295425,107.071861 232.830582,110.283997 233.986801,116.259674 C235.355743,123.334869 229.732697,129.879517 221.423508,129.929153 C191.445801,130.108261 161.464111,130.202911 131.488998,129.871201 C122.890572,129.776031 117.566811,124.348434 119.563065,114.927399 z"/>
  <path fill="#000000" opacity="1.000000" stroke="none" d=" M180.000000,384.000000 C193.814346,384.000000 207.128784,383.972565 220.443024,384.008972 C230.511658,384.036530 234.671188,391.186310 234.036560,396.772949 C233.365585,402.679535 228.441071,406.884033 220.419540,406.931305 C191.128983,407.103882 161.836060,407.113800 132.545700,406.926666 C124.262657,406.873779 119.285881,402.508301 118.998764,396.234619 C118.692924,389.552002 122.824020,384.194702 132.567719,384.058594 C148.209030,383.840057 163.855637,384.000000 180.000000,384.000000 z"/>
</svg>