<?xml version="1.0" standalone="no"?>
<!DOCTYPE svg PUBLIC "-//W3C//DTD SVG 20010904//EN"
 "http://www.w3.org/TR/2001/REC-SVG-20010904/DTD/svg10.dtd">
<svg version="1.0" xmlns="http://www.w3.org/2000/svg"
 width="512.000000pt" height="512.000000pt" viewBox="0 0 512.000000 512.000000"
 preserveAspectRatio="xMidYMid meet">
<g transform="translate(0.000000,512.000000) scale(0.100000,-0.100000)"
fill="#000000" stroke="none">
<path d="M2305 5113 c-671 -72 -1279 -393 -1707 -903 -301 -358 -488 -764
-571 -1240 -19 -109 -21 -162 -21 -410 0 -248 2 -301 21 -410 94 -540 320
-987 693 -1374 383 -398 866 -650 1430 -749 109 -19 162 -21 410 -21 313 0
407 10 653 73 882 228 1600 946 1828 1828 63 246 73 340 73 653 0 313 -10 407
-73 653 -228 881 -946 1600 -1828 1828 -227 58 -334 71 -613 74 -140 2 -273 1
-295 -2z m446 -473 c391 -39 738 -174 1060 -412 360 -267 645 -684 763 -1119
100 -368 100 -730 0 -1098 -118 -435 -403 -852 -763 -1119 -218 -161 -461
-281 -702 -346 -368 -100 -730 -100 -1098 0 -241 65 -484 185 -702 346 -360
267 -645 684 -763 1119 -84 309 -97 617 -40 924 82 445 314 859 654 1169 190
174 455 334 703 425 265 97 604 139 888 111z"/>
<path d="M2487 4030 c-98 -25 -184 -100 -218 -189 -29 -79 -27 -176 5 -246
102 -224 411 -250 546 -47 105 159 45 379 -126 458 -58 27 -151 38 -207 24z"/>
<path d="M2451 2924 c-64 -32 -106 -86 -121 -157 -8 -37 -10 -269 -8 -782 3
-690 4 -732 22 -765 48 -90 119 -134 216 -134 97 0 168 44 216 134 18 33 19
75 22 765 2 513 0 745 -8 782 -33 151 -197 227 -339 157z"/>
</g>
</svg>
