<?xml version="1.0" encoding="utf-8"?>
<svg version="1.1" id="Layer_1" x="0px" y="0px" width="100%" viewBox="0 0 512 512" enable-background="new 0 0 512 512" xmlns="http://www.w3.org/2000/svg">
  <path fill="#FFFFFF" opacity="1.000000" stroke="none" d=" M1.000000,100.466858 C1.630971,99.852211 2.628573,99.906349 2.837880,99.526321 C5.942677,93.889053 10.725981,91.937660 17.036697,91.940651 C176.072922,92.016098 335.109283,92.054985 494.145264,91.839027 C502.170227,91.828133 508.068085,94.002609 512.707642,100.287071 C513.000000,105.022095 513.000000,110.044182 513.000000,115.533142 C512.483337,116.033173 511.626099,115.886261 511.499481,116.125679 C507.687805,123.333763 500.877594,124.929047 493.750458,124.932999 C335.856873,125.020569 177.963272,125.003716 20.069664,124.988853 C12.300336,124.988121 5.899234,122.183540 1.292373,115.712921 C1.000000,110.977905 1.000000,105.955818 1.000000,100.466858 z"/>
  <path fill="#FFFFFF" opacity="1.000000" stroke="none" d=" M0.999999,249.466858 C1.630967,248.852203 2.628563,248.906342 2.837874,248.526321 C5.942687,242.889084 10.725967,240.937637 17.036703,240.940643 C176.072891,241.016083 335.109192,241.054993 494.145142,240.839035 C502.170135,240.828140 508.068054,243.002563 512.707642,249.287079 C513.000000,254.022095 513.000000,259.044189 513.000000,264.533142 C512.369019,265.147797 511.371368,265.093658 511.162079,265.473694 C508.057281,271.110992 503.273987,273.062347 496.963287,273.059357 C337.927063,272.983917 178.890747,272.945007 19.854797,273.160980 C11.829817,273.171875 5.931911,270.997437 1.292399,264.712891 C1.000000,259.977905 1.000000,254.955811 0.999999,249.466858 z"/>
  <path fill="#FFFFFF" opacity="1.000000" stroke="none" d=" M1.000000,398.466858 C1.516730,397.966797 2.374079,398.113678 2.500696,397.874207 C6.312713,390.664368 13.124654,389.078979 20.252443,389.068909 C98.042633,388.958893 175.833069,388.967987 253.623322,389.051971 C261.000671,389.059937 268.212555,390.651825 271.618011,398.213623 C276.335297,408.688385 271.054596,422.167664 257.228790,422.123322 C178.106659,421.869507 98.982925,421.891632 19.860924,422.165497 C11.832037,422.193298 5.933312,419.999725 1.292399,413.712891 C1.000000,408.977905 1.000000,403.955811 1.000000,398.466858 z"/>
</svg>