<?xml version="1.0" standalone="no"?>
<!DOCTYPE svg PUBLIC "-//W3C//DTD SVG 20010904//EN"
 "http://www.w3.org/TR/2001/REC-SVG-20010904/DTD/svg10.dtd">
<svg version="1.0" xmlns="http://www.w3.org/2000/svg"
 width="512.000000pt" height="512.000000pt" viewBox="0 0 512.000000 512.000000"
 preserveAspectRatio="xMidYMid meet">
<g transform="translate(0.000000,512.000000) scale(0.100000,-0.100000)"
fill="#000000" stroke="none">
<path d="M648 4301 c-145 -47 -269 -174 -312 -320 -14 -49 -16 -203 -16 -1422
0 -1314 1 -1370 19 -1428 46 -147 172 -272 320 -315 49 -14 245 -16 1902 -16
1785 0 1849 1 1908 19 147 46 272 172 315 320 14 49 16 196 16 1341 0 1145 -2
1292 -16 1341 -43 148 -168 274 -315 320 -58 18 -107 19 -1063 19 l-1002 0
-35 36 c-44 46 -105 82 -180 105 -57 18 -103 19 -772 18 -662 0 -716 -1 -769
-18z m1422 -312 c25 -6 58 -22 73 -37 16 -15 71 -110 122 -212 123 -244 189
-313 344 -360 60 -19 97 -20 880 -20 453 0 833 -5 855 -10 49 -11 85 -37 111
-81 20 -33 20 -52 20 -1029 0 -977 0 -996 -20 -1029 -26 -44 -62 -70 -111 -81
-52 -13 -3516 -13 -3568 0 -49 11 -85 37 -111 81 -20 34 -20 52 -20 1349 0
1297 0 1315 20 1349 25 42 62 71 106 81 52 12 1246 11 1299 -1z m2274 -159
c70 -16 116 -65 130 -139 5 -29 4 -32 -12 -25 -9 5 -404 11 -877 14 -617 4
-867 8 -885 16 -40 19 -110 107 -110 139 0 9 1713 5 1754 -5z"/>
</g>
</svg>
