<?xml version="1.0" encoding="utf-8"?>
<svg version="1.1" id="Layer_1" x="0px" y="0px" width="100%" viewBox="0 0 512 512" enable-background="new 0 0 512 512" xmlns="http://www.w3.org/2000/svg">
  <path fill="#98D4FF" opacity="1.000000" stroke="none" d=" M513.000000,243.000000 C513.000000,308.354218 513.000000,373.708466 512.737061,439.214355 C508.371460,444.596466 502.875427,445.444916 496.591339,445.102173 C488.852173,444.680115 481.072479,445.001404 473.000916,445.001404 C473.000916,453.142792 473.185425,460.771667 472.941315,468.386780 C472.753052,474.261139 472.926361,480.372681 471.354614,485.930695 C467.967926,497.906921 460.152008,506.423004 448.373779,511.057220 C447.756622,511.300049 447.450775,512.334229 447.000000,513.000000 C320.645782,513.000000 194.291550,513.000000 67.792130,512.708740 C67.188210,511.968323 66.806297,511.281067 66.259567,511.104645 C50.659370,506.071320 40.801311,490.023621 40.976891,475.031281 C41.093044,465.113159 40.998890,455.192596 40.998890,445.001404 C33.650906,445.001404 26.856470,444.964874 20.062609,445.011719 C13.345449,445.058014 6.317157,446.222717 1.667731,439.457092 C1.445154,439.638062 1.222577,439.819031 1.000000,440.000000 C1.000000,374.645782 1.000000,309.291534 1.261770,243.786774 C3.013860,241.930389 4.414579,240.135391 6.009012,238.533157 C16.579594,227.910721 27.124809,217.261139 37.843159,206.789169 C40.164753,204.520920 41.070999,202.256760 41.065384,199.025833 C40.972164,145.406143 40.965431,91.786179 41.075634,38.166550 C41.082829,34.667042 41.875633,31.079166 42.846180,27.687847 C46.281979,15.682378 54.094719,7.592628 65.623627,2.944577 C66.243065,2.694843 66.548431,1.666104 67.000000,1.000000 C166.354233,1.000000 265.708466,1.000000 365.213684,1.249370 C366.591278,2.842573 367.766968,4.237245 369.051819,5.522824 C401.870636,38.360332 434.670166,71.217255 467.571442,103.971962 C471.304779,107.688667 473.049194,111.815407 473.035309,117.025658 C472.962646,144.315491 473.048859,171.605835 472.937683,198.895401 C472.924683,202.090179 473.712799,204.385239 476.069916,206.682922 C486.911377,217.250916 497.530975,228.046280 508.257141,238.733063 C509.761719,240.232056 511.415344,241.581390 513.000000,243.000000 M460.057709,215.065826 C460.057709,185.856750 460.057709,156.647690 460.057709,127.001999 C457.247223,127.001999 455.279449,127.001991 453.311646,127.001991 C423.027618,127.001961 392.743622,127.013161 362.459625,126.981102 C359.976929,126.978477 357.494568,126.681442 354.491150,126.142982 C347.492340,123.510719 346.128479,117.714264 346.126617,111.182533 C346.117981,80.689293 346.124146,50.196056 346.120911,19.702816 C346.120209,13.085926 346.112457,13.074821 339.662933,13.074521 C277.343414,13.071631 215.023895,13.072500 152.704376,13.072881 C128.709702,13.073028 104.714653,12.994631 80.720467,13.104040 C64.964363,13.175884 54.007301,24.295765 53.998707,39.912746 C53.963684,103.564873 53.932163,167.216995 53.901859,230.869125 C53.898525,237.872437 53.905998,237.877182 60.982880,237.877228 C191.620590,237.878189 322.258301,237.877945 452.895996,237.877792 C453.895782,237.877792 454.904968,237.786316 455.893616,237.890701 C459.236877,238.243805 460.257233,236.657822 460.143188,233.488052 C459.933624,227.663727 460.001038,221.829453 460.057709,215.065826 M340.499969,432.700165 C391.988647,432.702026 443.477448,432.660583 494.965851,432.784027 C499.305664,432.794434 501.004639,431.934052 500.989532,427.066345 C500.811462,369.746155 500.877014,312.425201 500.865234,255.104462 C500.864899,253.500626 500.718506,251.896820 500.640869,250.306274 C337.916290,250.306274 175.733154,250.306274 13.124749,250.306274 C13.124749,252.697601 13.124750,254.669022 13.124750,256.640442 C13.124752,312.961426 13.124417,369.282379 13.125167,425.603363 C13.125261,432.699188 13.127903,432.705048 20.070044,432.704987 C126.546677,432.704193 233.023300,432.701721 340.499969,432.700165 M347.500000,500.925629 C375.656708,500.925323 403.813873,500.830688 431.970001,500.958008 C450.623901,501.042328 461.196777,486.873444 460.096405,472.873291 C459.549805,465.918701 460.003601,458.885681 460.000946,451.888123 C459.998291,444.971527 459.996155,444.967834 452.897217,444.967773 C322.276459,444.967041 191.655670,444.967255 61.034901,444.967438 C60.035255,444.967438 59.027241,445.053772 58.037525,444.955292 C55.037579,444.656677 53.850822,445.890869 53.954250,448.958740 C54.128178,454.117676 53.949463,459.287415 54.012337,464.451477 C54.077110,469.771606 53.510361,475.237244 54.526939,480.380859 C57.074322,493.270020 67.898674,500.914825 82.592728,500.917480 C170.561813,500.933319 258.530914,500.925354 347.500000,500.925629 M425.448517,80.051445 C403.770874,58.373787 382.093262,36.696129 359.377014,13.979863 C359.197784,17.275074 359.035828,18.873325 359.035004,20.471657 C359.019836,49.764843 359.136169,79.058891 358.912201,108.350380 C358.875397,113.164528 360.543518,114.114403 364.928833,114.090279 C394.554016,113.927261 424.180542,114.009300 453.806610,113.992798 C455.204041,113.992020 456.601349,113.808655 459.016174,113.638725 C447.520691,102.136559 436.734528,91.344109 425.448517,80.051445 M36.795822,226.297455 C33.269169,229.832260 29.742516,233.367081 25.697420,237.421539 C31.743231,237.421539 36.493896,237.421539 41.417915,237.421539 C41.417915,232.282837 41.417915,227.473557 41.417915,221.920319 C39.665855,223.568115 38.480991,224.682465 36.795822,226.297455 M481.309570,237.748825 C483.340698,237.748825 485.371826,237.748825 486.583282,237.748825 C481.847687,232.828735 477.125854,227.922928 472.625732,223.247482 C472.625732,227.667953 472.625732,232.508087 472.625732,237.748703 C475.478363,237.748703 477.938324,237.748703 481.309570,237.748825 z"/>
  <path fill="#0278CC" opacity="1.000000" stroke="none" d=" M339.999939,432.699890 C233.023300,432.701721 126.546677,432.704193 20.070044,432.704987 C13.127903,432.705048 13.125261,432.699188 13.125167,425.603363 C13.124417,369.282379 13.124752,312.961426 13.124750,256.640442 C13.124750,254.669022 13.124749,252.697601 13.124749,250.306274 C175.733154,250.306274 337.916290,250.306274 500.640869,250.306274 C500.718506,251.896820 500.864899,253.500626 500.865234,255.104462 C500.877014,312.425201 500.811462,369.746155 500.989532,427.066345 C501.004639,431.934052 499.305664,432.794434 494.965851,432.784027 C443.477448,432.660583 391.988647,432.702026 339.999939,432.699890 M278.094940,287.033997 C269.741608,287.033997 261.388275,287.033997 252.220306,287.033997 C261.894318,304.252930 270.932098,320.504730 280.174805,336.639191 C281.848236,339.560394 282.027588,341.699951 280.243500,344.749176 C271.427490,359.817017 262.912537,375.061005 254.301361,390.248535 C253.467255,391.719635 252.701584,393.229523 251.579697,395.328430 C260.732330,395.328430 268.884705,395.170380 277.025665,395.405914 C280.300232,395.500641 282.048126,394.534058 283.493042,391.480316 C288.587769,380.712860 294.028229,370.109009 299.606842,358.902222 C300.636719,360.846771 301.434723,362.278015 302.164215,363.743408 C306.830566,373.116821 311.434509,382.521942 316.191193,391.849182 C316.871613,393.183411 318.239380,395.109528 319.335571,395.141022 C328.539795,395.405426 337.754852,395.291534 347.714020,395.291534 C346.426331,392.808655 345.657990,391.198425 344.778503,389.651367 C336.149780,374.472961 327.554688,359.274841 318.807281,344.165009 C317.405487,341.743652 317.280975,339.970581 318.735992,337.445404 C327.285553,322.607391 335.618866,307.644684 344.010529,292.715820 C344.957123,291.031830 345.812714,289.296600 346.999634,287.033936 C340.071106,287.033936 333.720367,287.629730 327.531403,286.883514 C319.751892,285.945496 315.623596,288.675354 312.754639,296.016693 C309.220612,305.059753 304.305756,313.563202 299.650116,322.982910 C294.055603,311.596191 288.953583,300.966034 283.552399,290.490112 C282.764069,288.961090 280.548340,288.167999 278.094940,287.033997 M248.834900,288.871643 C247.213135,288.259644 245.594193,287.123596 243.969147,287.114807 C222.139908,286.996643 200.309799,287.030548 178.479935,287.047577 C177.050903,287.048706 175.622025,287.219666 174.307953,287.304230 C174.307953,323.505280 174.307953,359.262817 174.307953,394.937714 C199.176468,394.937714 223.735901,394.937714 248.258881,394.937714 C248.258881,388.164673 248.258881,381.788544 248.258881,375.021179 C232.046951,375.021179 216.278732,375.021179 200.321472,375.021179 C200.321472,366.368866 200.321472,358.126648 200.321472,349.286896 C213.949326,349.286896 227.340927,349.286896 240.846786,349.286896 C240.846786,342.612244 240.846786,336.538239 240.846786,329.933716 C227.190063,329.933716 213.795013,329.933716 200.329239,329.933716 C200.329239,322.145874 200.329239,314.893951 200.329239,306.955627 C216.600723,306.955627 232.624680,306.955627 248.855942,306.955627 C248.855942,300.782166 248.855942,295.296753 248.834900,288.871643 M117.500000,287.032593 C102.590050,287.032593 87.680099,287.032593 72.782333,287.032593 C72.782333,294.098907 72.782333,300.475586 72.782333,307.322815 C83.435211,307.322815 93.692108,307.322815 104.484406,307.322815 C104.484406,336.855072 104.484406,365.905823 104.484406,395.101990 C113.319160,395.101990 121.597557,395.101990 130.440582,395.101990 C130.440582,365.820099 130.440582,336.759033 130.440582,307.119690 C141.544373,307.119690 152.099884,307.119690 162.690720,307.119690 C162.690720,300.136658 162.690720,293.743896 162.690720,287.032593 C147.754883,287.032593 133.127441,287.032593 117.500000,287.032593 M382.961212,324.501678 C382.961212,348.045685 382.961212,371.589691 382.961212,395.054077 C392.051636,395.054077 400.314545,395.054077 409.045776,395.054077 C409.045776,365.735077 409.045776,336.681610 409.045776,307.075500 C420.059784,307.075500 430.613770,307.075500 441.267273,307.075500 C441.267273,300.109589 441.267273,293.706848 441.267273,287.372314 C411.033600,287.372314 381.148834,287.372314 351.350403,287.372314 C351.350403,294.114777 351.350403,300.516388 351.350403,307.280823 C361.958771,307.280823 372.223297,307.280823 382.961212,307.280823 C382.961212,312.930786 382.961212,318.216675 382.961212,324.501678 z"/>
  <path fill="#42A5EE" opacity="1.000000" stroke="none" d=" M459.952972,215.999313 C460.001038,221.829453 459.933624,227.663727 460.143188,233.488052 C460.257233,236.657822 459.236877,238.243805 455.893616,237.890701 C454.904968,237.786316 453.895782,237.877792 452.895996,237.877792 C322.258301,237.877945 191.620590,237.878189 60.982880,237.877228 C53.905998,237.877182 53.898525,237.872437 53.901859,230.869125 C53.932163,167.216995 53.963684,103.564873 53.998707,39.912746 C54.007301,24.295765 64.964363,13.175884 80.720467,13.104040 C104.714653,12.994631 128.709702,13.073028 152.704376,13.072881 C215.023895,13.072500 277.343414,13.071631 339.662933,13.074521 C346.112457,13.074821 346.120209,13.085926 346.120911,19.702816 C346.124146,50.196056 346.117981,80.689293 346.126617,111.182533 C346.128479,117.714264 347.492340,123.510719 354.864716,126.689407 C356.108795,128.227783 356.866638,129.354340 357.866669,130.191574 C373.509735,143.287750 389.223816,156.299255 404.840820,169.426346 C423.252167,184.902313 441.585693,200.470886 459.952972,215.999313 M241.499969,170.304245 C245.666260,170.304153 249.832535,170.305328 253.998825,170.303741 C275.163361,170.295700 296.328247,170.354492 317.492157,170.237091 C323.809326,170.202042 327.883209,166.216675 328.007996,160.578430 C328.135406,154.822189 323.783386,150.423813 317.594849,150.086945 C316.431488,150.023636 315.262268,150.064606 314.095734,150.064590 C245.602295,150.063919 177.108871,150.063248 108.615433,150.068451 C106.950256,150.068573 105.261986,149.970367 103.624039,150.200043 C97.707283,151.029755 94.231926,155.511948 94.761971,161.457642 C95.280106,167.269806 99.371437,170.286346 107.012749,170.290253 C151.508469,170.312958 196.004211,170.303497 241.499969,170.304245 M307.486572,209.063080 C311.318604,209.041733 315.169495,209.252289 318.978180,208.943253 C324.338593,208.508301 328.105560,204.060562 328.000458,198.782333 C327.899292,193.703186 324.198853,189.615387 319.060638,189.028992 C317.578217,188.859802 316.065002,188.940308 314.565887,188.940231 C245.747726,188.936783 176.929565,188.936691 108.111397,188.939835 C106.612198,188.939911 105.102425,188.875763 103.615715,189.023788 C98.396255,189.543457 94.828377,193.462921 94.708679,198.703522 C94.556648,205.359741 98.907852,209.054810 107.035233,209.056168 C173.520584,209.067245 240.005920,209.062866 307.486572,209.063080 M94.466385,122.248314 C96.244431,129.205154 99.346542,131.836868 106.354431,131.844345 C145.639206,131.886215 184.924088,131.889816 224.208847,131.840652 C231.366119,131.831696 235.939484,127.777351 236.035751,121.743202 C236.135849,115.468224 231.548523,111.264847 224.083542,111.253571 C184.965271,111.194466 145.846817,111.196304 106.728546,111.253456 C99.080902,111.264633 95.973907,114.011421 94.466385,122.248314 z"/>
  <path fill="#41A5EE" opacity="1.000000" stroke="none" d=" M347.000000,500.925507 C258.530914,500.925354 170.561813,500.933319 82.592728,500.917480 C67.898674,500.914825 57.074322,493.270020 54.526939,480.380859 C53.510361,475.237244 54.077110,469.771606 54.012337,464.451477 C53.949463,459.287415 54.128178,454.117676 53.954250,448.958740 C53.850822,445.890869 55.037579,444.656677 58.037525,444.955292 C59.027241,445.053772 60.035255,444.967438 61.034901,444.967438 C191.655670,444.967255 322.276459,444.967041 452.897217,444.967773 C459.996155,444.967834 459.998291,444.971527 460.000946,451.888123 C460.003601,458.885681 459.549805,465.918701 460.096405,472.873291 C461.196777,486.873444 450.623901,501.042328 431.970001,500.958008 C403.813873,500.830688 375.656708,500.925323 347.000000,500.925507 z"/>
  <path fill="#D7EFFF" opacity="1.000000" stroke="none" d=" M425.698425,80.301544 C436.734528,91.344109 447.520691,102.136559 459.016174,113.638725 C456.601349,113.808655 455.204041,113.992020 453.806610,113.992798 C424.180542,114.009300 394.554016,113.927261 364.928833,114.090279 C360.543518,114.114403 358.875397,113.164528 358.912201,108.350380 C359.136169,79.058891 359.019836,49.764843 359.035004,20.471657 C359.035828,18.873325 359.197784,17.275074 359.377014,13.979863 C382.093262,36.696129 403.770874,58.373787 425.698425,80.301544 z"/>
  <path fill="#258AD4" opacity="1.000000" stroke="none" d=" M460.005341,215.532562 C441.585693,200.470886 423.252167,184.902313 404.840820,169.426346 C389.223816,156.299255 373.509735,143.287750 357.866669,130.191574 C356.866638,129.354340 356.108795,128.227783 355.125183,126.878517 C357.494568,126.681442 359.976929,126.978477 362.459625,126.981102 C392.743622,127.013161 423.027618,127.001961 453.311646,127.001991 C455.279449,127.001991 457.247223,127.001999 460.057709,127.001999 C460.057709,156.647690 460.057709,185.856750 460.005341,215.532562 z"/>
  <path fill="#1E5F42" opacity="1.000000" stroke="none" d=" M37.045975,226.047150 C38.480991,224.682465 39.665855,223.568115 41.417915,221.920319 C41.417915,227.473557 41.417915,232.282837 41.417915,237.421539 C36.493896,237.421539 31.743231,237.421539 25.697420,237.421539 C29.742516,233.367081 33.269169,229.832260 37.045975,226.047150 z"/>
  <path fill="#1F5F43" opacity="1.000000" stroke="none" d=" M480.853943,237.748764 C477.938324,237.748703 475.478363,237.748703 472.625732,237.748703 C472.625732,232.508087 472.625732,227.667953 472.625732,223.247482 C477.125854,227.922928 481.847687,232.828735 486.583282,237.748825 C485.371826,237.748825 483.340698,237.748825 480.853943,237.748764 z"/>
  <path fill="#FDFEFF" opacity="1.000000" stroke="none" d=" M278.544006,287.034180 C280.548340,288.167999 282.764069,288.961090 283.552399,290.490112 C288.953583,300.966034 294.055603,311.596191 299.650116,322.982910 C304.305756,313.563202 309.220612,305.059753 312.754639,296.016693 C315.623596,288.675354 319.751892,285.945496 327.531403,286.883514 C333.720367,287.629730 340.071106,287.033936 346.999634,287.033936 C345.812714,289.296600 344.957123,291.031830 344.010529,292.715820 C335.618866,307.644684 327.285553,322.607391 318.735992,337.445404 C317.280975,339.970581 317.405487,341.743652 318.807281,344.165009 C327.554688,359.274841 336.149780,374.472961 344.778503,389.651367 C345.657990,391.198425 346.426331,392.808655 347.714020,395.291534 C337.754852,395.291534 328.539795,395.405426 319.335571,395.141022 C318.239380,395.109528 316.871613,393.183411 316.191193,391.849182 C311.434509,382.521942 306.830566,373.116821 302.164215,363.743408 C301.434723,362.278015 300.636719,360.846771 299.606842,358.902222 C294.028229,370.109009 288.587769,380.712860 283.493042,391.480316 C282.048126,394.534058 280.300232,395.500641 277.025665,395.405914 C268.884705,395.170380 260.732330,395.328430 251.579697,395.328430 C252.701584,393.229523 253.467255,391.719635 254.301361,390.248535 C262.912537,375.061005 271.427490,359.817017 280.243500,344.749176 C282.027588,341.699951 281.848236,339.560394 280.174805,336.639191 C270.932098,320.504730 261.894318,304.252930 252.220306,287.033997 C261.388275,287.033997 269.741608,287.033997 278.544006,287.034180 z"/>
  <path fill="#FEFEFF" opacity="1.000000" stroke="none" d=" M248.845428,289.341492 C248.855942,295.296753 248.855942,300.782166 248.855942,306.955627 C232.624680,306.955627 216.600723,306.955627 200.329239,306.955627 C200.329239,314.893951 200.329239,322.145874 200.329239,329.933716 C213.795013,329.933716 227.190063,329.933716 240.846786,329.933716 C240.846786,336.538239 240.846786,342.612244 240.846786,349.286896 C227.340927,349.286896 213.949326,349.286896 200.321472,349.286896 C200.321472,358.126648 200.321472,366.368866 200.321472,375.021179 C216.278732,375.021179 232.046951,375.021179 248.258881,375.021179 C248.258881,381.788544 248.258881,388.164673 248.258881,394.937714 C223.735901,394.937714 199.176468,394.937714 174.307953,394.937714 C174.307953,359.262817 174.307953,323.505280 174.307953,287.304230 C175.622025,287.219666 177.050903,287.048706 178.479935,287.047577 C200.309799,287.030548 222.139908,286.996643 243.969147,287.114807 C245.594193,287.123596 247.213135,288.259644 248.845428,289.341492 z"/>
  <path fill="#FCFDFE" opacity="1.000000" stroke="none" d=" M118.000000,287.032593 C133.127441,287.032593 147.754883,287.032593 162.690720,287.032593 C162.690720,293.743896 162.690720,300.136658 162.690720,307.119690 C152.099884,307.119690 141.544373,307.119690 130.440582,307.119690 C130.440582,336.759033 130.440582,365.820099 130.440582,395.101990 C121.597557,395.101990 113.319160,395.101990 104.484406,395.101990 C104.484406,365.905823 104.484406,336.855072 104.484406,307.322815 C93.692108,307.322815 83.435211,307.322815 72.782333,307.322815 C72.782333,300.475586 72.782333,294.098907 72.782333,287.032593 C87.680099,287.032593 102.590050,287.032593 118.000000,287.032593 z"/>
  <path fill="#FEFFFF" opacity="1.000000" stroke="none" d=" M382.961212,324.002136 C382.961212,318.216675 382.961212,312.930786 382.961212,307.280823 C372.223297,307.280823 361.958771,307.280823 351.350403,307.280823 C351.350403,300.516388 351.350403,294.114777 351.350403,287.372314 C381.148834,287.372314 411.033600,287.372314 441.267273,287.372314 C441.267273,293.706848 441.267273,300.109589 441.267273,307.075500 C430.613770,307.075500 420.059784,307.075500 409.045776,307.075500 C409.045776,336.681610 409.045776,365.735077 409.045776,395.054077 C400.314545,395.054077 392.051636,395.054077 382.961212,395.054077 C382.961212,371.589691 382.961212,348.045685 382.961212,324.002136 z"/>
  <path fill="#D7EEFF" opacity="1.000000" stroke="none" d=" M240.999954,170.304581 C196.004211,170.303497 151.508469,170.312958 107.012749,170.290253 C99.371437,170.286346 95.280106,167.269806 94.761971,161.457642 C94.231926,155.511948 97.707283,151.029755 103.624039,150.200043 C105.261986,149.970367 106.950256,150.068573 108.615433,150.068451 C177.108871,150.063248 245.602295,150.063919 314.095734,150.064590 C315.262268,150.064606 316.431488,150.023636 317.594849,150.086945 C323.783386,150.423813 328.135406,154.822189 328.007996,160.578430 C327.883209,166.216675 323.809326,170.202042 317.492157,170.237091 C296.328247,170.354492 275.163361,170.295700 253.998825,170.303741 C249.832535,170.305328 245.666260,170.304153 240.999954,170.304581 z"/>
  <path fill="#D8EFFF" opacity="1.000000" stroke="none" d=" M306.988922,209.063126 C240.005920,209.062866 173.520584,209.067245 107.035233,209.056168 C98.907852,209.054810 94.556648,205.359741 94.708679,198.703522 C94.828377,193.462921 98.396255,189.543457 103.615715,189.023788 C105.102425,188.875763 106.612198,188.939911 108.111397,188.939835 C176.929565,188.936691 245.747726,188.936783 314.565887,188.940231 C316.065002,188.940308 317.578217,188.859802 319.060638,189.028992 C324.198853,189.615387 327.899292,193.703186 328.000458,198.782333 C328.105560,204.060562 324.338593,208.508301 318.978180,208.943253 C315.169495,209.252289 311.318604,209.041733 306.988922,209.063126 z"/>
  <path fill="#D3EDFE" opacity="1.000000" stroke="none" d=" M94.436531,121.875305 C95.973907,114.011421 99.080902,111.264633 106.728546,111.253456 C145.846817,111.196304 184.965271,111.194466 224.083542,111.253571 C231.548523,111.264847 236.135849,115.468224 236.035751,121.743202 C235.939484,127.777351 231.366119,131.831696 224.208847,131.840652 C184.924088,131.889816 145.639206,131.886215 106.354431,131.844345 C99.346542,131.836868 96.244431,129.205154 94.436531,121.875305 z"/>
</svg>