<?xml version="1.0" encoding="utf-8"?>
<svg version="1.1" id="Layer_1" x="0px" y="0px" width="100%" viewBox="0 0 512 512" enable-background="new 0 0 512 512" xmlns="http://www.w3.org/2000/svg">
  <path fill="#41A5EE" opacity="1.000000" stroke="none" d=" M60.000000,1.000001 C161.021439,1.000000 262.042877,1.000000 363.500244,1.467973 C363.901123,35.820198 363.851074,69.704460 363.885559,103.588638 C363.886932,104.952873 364.687775,106.316284 365.168518,107.967117 C365.594147,108.794571 365.894287,109.407990 366.350952,109.864983 C399.649109,143.188156 432.953003,176.505569 466.301666,209.778107 C467.292297,210.766495 468.763916,211.272812 470.050720,212.471054 C470.146210,224.956848 470.202209,236.975464 469.774139,249.025238 C328.272400,249.063690 187.254730,249.071136 46.237068,249.074799 C45.405346,249.074829 44.573627,249.022186 43.783676,248.527313 C43.836880,235.938049 43.880470,223.815460 43.820431,211.693375 C43.812630,210.118195 43.270603,208.545639 42.998104,206.505432 C43.013653,147.104141 43.026299,88.169266 42.984261,29.234432 C42.975945,17.581184 47.766422,8.880135 58.132088,3.323915 C58.938305,2.891763 59.385788,1.790353 60.000000,1.000001 M330.852173,200.114563 C330.397736,196.655136 330.778046,192.772888 329.290710,189.836685 C327.129120,185.569351 322.409393,185.178711 317.907745,185.180084 C245.265518,185.202286 172.623306,185.195648 99.981087,185.196991 C99.148193,185.197006 98.311279,185.166046 97.483032,185.233185 C90.855042,185.770493 86.015480,190.557571 86.232063,196.338165 C86.461540,202.462601 91.129662,206.845261 97.955994,206.849487 C171.931061,206.895340 245.906189,206.879807 319.881287,206.875076 C324.570587,206.874771 328.299072,205.138290 330.852173,200.114563 M218.500000,166.058838 C252.312332,166.057236 286.124725,166.084534 319.936981,166.030502 C327.018158,166.019196 331.923187,161.356522 331.707581,155.196838 C331.495209,149.127823 326.800079,145.028366 319.922363,144.913818 C318.923218,144.897186 317.923645,144.907822 316.924255,144.907822 C244.968933,144.907623 173.013611,144.907318 101.058289,144.909668 C99.392906,144.909729 97.723114,144.867966 96.063004,144.969925 C91.801140,145.231689 88.903374,147.547394 87.273697,151.350800 C84.003357,158.983276 89.377686,166.027298 98.573868,166.037689 C138.215866,166.082474 177.857941,166.058121 218.500000,166.058838 M143.499985,125.267326 C169.801651,125.266457 196.103363,125.244011 222.404968,125.287010 C226.555511,125.293800 230.434265,124.882271 232.981918,121.056145 C235.266815,117.624657 235.876724,113.956703 233.981461,110.189636 C231.707321,105.669441 227.765076,104.041550 222.873489,104.044533 C181.423416,104.069817 139.973328,104.040031 98.523277,104.076927 C91.100975,104.083534 86.148918,108.610634 86.247169,115.017250 C86.339462,121.036346 91.276566,125.221695 98.552956,125.248375 C113.201790,125.302071 127.850945,125.266556 143.499985,125.267326 z"/>
  <path fill="#0178CC" opacity="1.000000" stroke="none" d=" M43.741905,248.994141 C44.573627,249.022186 45.405346,249.074829 46.237068,249.074799 C187.254730,249.071136 328.272400,249.063690 470.218964,249.026535 C485.098572,248.997787 499.049286,248.998886 513.000000,249.000000 C513.000000,313.020905 513.000000,377.041779 512.531372,441.530975 C498.402985,442.014709 484.743317,442.030151 470.695374,441.879242 C468.507141,441.503845 466.707245,441.112152 464.907257,441.111786 C326.353882,441.083374 187.800522,441.081543 49.247158,441.125671 C47.136806,441.126343 45.026642,441.725647 42.452908,442.026215 C28.326284,442.004578 14.663142,442.002289 1.000000,442.000000 C1.000000,377.979095 1.000000,313.958221 1.468560,249.479492 C15.872048,249.012512 29.806976,249.003326 43.741905,248.994141 M260.683044,388.242645 C270.606842,381.347717 277.017731,371.878357 278.885468,360.086792 C280.172943,351.958771 280.478882,343.471039 279.765228,335.270966 C278.054413,315.612274 264.185577,299.129211 244.773514,296.140778 C230.469254,293.938690 215.644226,295.118713 201.050949,294.806122 C200.922058,294.803345 200.788925,294.998383 200.495361,295.228180 C200.495361,328.657593 200.495361,362.214142 200.495361,396.298645 C211.912796,396.298645 223.033875,396.260712 234.154587,396.310272 C243.577805,396.352264 252.213516,393.816620 260.683044,388.242645 M459.059875,356.486938 C458.680481,346.884888 459.523804,337.039948 457.674164,327.729980 C453.468048,306.558655 436.681061,293.264496 415.917297,293.039307 C394.118988,292.802917 377.163330,305.358124 372.603424,326.928467 C370.541290,336.683380 370.352966,347.166931 371.237366,357.149567 C373.848846,386.627594 400.678802,404.487732 428.725281,395.848877 C447.502686,390.065125 456.042664,375.810303 459.059875,356.486938 M322.547546,377.434296 C321.105377,377.325867 319.663239,377.217468 318.032227,377.094849 C318.032227,369.029205 318.032227,361.302673 318.032227,352.941284 C330.873688,352.941284 343.420685,352.941284 355.941101,352.941284 C355.941101,346.695343 355.941101,341.089325 355.941101,334.880249 C343.147491,334.880249 330.591034,334.880249 317.983093,334.880249 C317.983093,327.492859 317.983093,320.715637 317.983093,313.280060 C333.110779,313.280060 347.997345,313.280060 363.021454,313.280060 C363.021454,306.707794 363.021454,300.801025 363.021454,294.620361 C339.641846,294.620361 316.570923,294.620361 293.344818,294.620361 C293.344818,328.604401 293.344818,362.312683 293.344818,395.930298 C316.740051,395.930298 339.792297,395.930298 362.815277,395.930298 C362.815277,389.629181 362.815277,383.737854 362.815277,377.435059 C349.480469,377.435059 336.512238,377.435059 322.547546,377.434296 M107.484970,347.938416 C105.722687,354.242828 103.960396,360.547272 101.811272,368.235565 C100.898155,365.076141 100.416771,363.490570 99.981522,361.892426 C94.255844,340.868958 88.566055,319.835602 82.756516,298.835327 C82.321671,297.263428 81.089882,294.706146 80.147736,294.669189 C71.778839,294.341187 63.391708,294.478424 55.009800,294.478424 C55.009800,295.644745 54.924942,295.996826 55.021832,296.288574 C65.768036,328.648346 76.492210,361.015656 87.414474,393.315979 C87.860634,394.635406 90.139618,396.094208 91.630905,396.169128 C97.946968,396.486237 104.298592,396.085632 110.615990,396.389191 C114.252029,396.563904 115.791336,395.294220 116.933968,391.846466 C127.136658,361.060974 137.547394,330.344452 147.876968,299.600922 C148.382126,298.097443 148.702026,296.531738 149.272018,294.375183 C141.032806,294.375183 133.403748,294.527100 125.786041,294.299103 C122.813065,294.210114 121.752922,295.409576 121.052704,298.041290 C116.690811,314.435181 112.202599,330.795471 107.484970,347.938416 M158.794266,374.499908 C158.794266,381.609589 158.794266,388.719299 158.794266,396.046936 C167.136353,396.046936 174.863861,396.046936 182.736618,396.046936 C182.736618,362.087097 182.736618,328.411652 182.736618,294.726562 C174.613419,294.726562 166.884705,294.726562 158.794144,294.726562 C158.794144,321.235626 158.794144,347.367798 158.794266,374.499908 z"/>
  <path fill="#41A5EE" opacity="1.000000" stroke="none" d=" M42.916389,442.045593 C45.026642,441.725647 47.136806,441.126343 49.247158,441.125671 C187.800522,441.081543 326.353882,441.083374 464.907257,441.111786 C466.707245,441.112152 468.507141,441.503845 470.659424,442.342529 C471.007935,456.592041 470.860931,470.213776 471.042908,483.831085 C471.206329,496.060730 466.413727,505.202850 455.417908,510.918854 C454.761902,511.259827 454.464355,512.290344 454.000000,513.000000 C322.979095,513.000000 191.958206,513.000000 60.766365,512.709106 C60.139458,511.966827 59.762814,511.348663 59.215881,511.088623 C47.547512,505.539520 42.769188,496.083771 42.948704,483.450653 C43.144787,469.651917 42.944122,455.847534 42.916389,442.045593 z"/>
  <path fill="#D7EEFF" opacity="1.000000" stroke="none" d=" M365.666687,1.000003 C366.922211,2.452070 367.614624,4.133088 368.800079,5.322869 C402.466431,39.112087 436.182404,72.851852 469.416931,107.038910 C438.485657,107.439293 408.027771,107.387794 377.569855,107.376450 C373.418640,107.374901 369.267334,107.573929 365.116089,107.680084 C364.687775,106.316284 363.886932,104.952873 363.885559,103.588638 C363.851074,69.704460 363.901123,35.820198 363.968079,1.467973 C364.444458,1.000000 364.888885,1.000000 365.666687,1.000003 z"/>
  <path fill="#00528C" opacity="1.000000" stroke="none" d=" M1.000000,248.250000 C12.429431,236.737457 23.859203,225.475266 35.288010,214.212082 C37.646877,211.887405 40.002209,209.559128 42.667595,207.102203 C43.270603,208.545639 43.812630,210.118195 43.820431,211.693375 C43.880470,223.815460 43.836880,235.938049 43.783676,248.527313 C29.806976,249.003326 15.872048,249.012512 1.468560,249.010834 C1.000000,249.000000 1.000000,248.500000 1.000000,248.250000 z"/>
  <path fill="#00528C" opacity="1.000000" stroke="none" d=" M471.086151,206.909790 C484.848083,220.529694 498.610046,234.149597 512.686035,247.884750 C513.000000,248.000000 513.000000,248.500000 513.000000,248.750000 C499.049286,248.998886 485.098572,248.997787 470.703033,248.995392 C470.202209,236.975464 470.146210,224.956848 470.316772,212.204803 C470.724274,209.950867 470.905212,208.430313 471.086151,206.909790 z"/>
  <path fill="#258AD4" opacity="1.000000" stroke="none" d=" M471.037292,206.667938 C470.905212,208.430313 470.724274,209.950867 470.277283,211.737640 C468.763916,211.272812 467.292297,210.766495 466.301666,209.778107 C432.953003,176.505569 399.649109,143.188156 366.350952,109.864983 C365.894287,109.407990 365.594147,108.794571 365.168518,107.967125 C369.267334,107.573929 373.418640,107.374901 377.569855,107.376450 C408.027771,107.387794 438.485657,107.439293 469.446899,107.387451 C469.950226,107.296761 469.871796,107.309708 469.888794,107.799797 C469.937225,138.919342 469.953705,169.548843 470.035583,200.178162 C470.040741,202.105118 470.556946,204.030701 470.835419,205.956924 C470.835419,205.956924 470.988403,206.426086 471.037292,206.667938 z"/>
  <path fill="#D3EDFE" opacity="1.000000" stroke="none" d=" M330.694763,200.461609 C328.299072,205.138290 324.570587,206.874771 319.881287,206.875076 C245.906189,206.879807 171.931061,206.895340 97.955994,206.849487 C91.129662,206.845261 86.461540,202.462601 86.232063,196.338165 C86.015480,190.557571 90.855042,185.770493 97.483032,185.233185 C98.311279,185.166046 99.148193,185.197006 99.981087,185.196991 C172.623306,185.195648 245.265518,185.202286 317.907745,185.180084 C322.409393,185.178711 327.129120,185.569351 329.290710,189.836685 C330.778046,192.772888 330.397736,196.655136 330.694763,200.461609 z"/>
  <path fill="#D8EFFF" opacity="1.000000" stroke="none" d=" M218.000000,166.058868 C177.857941,166.058121 138.215866,166.082474 98.573868,166.037689 C89.377686,166.027298 84.003357,158.983276 87.273697,151.350800 C88.903374,147.547394 91.801140,145.231689 96.063004,144.969925 C97.723114,144.867966 99.392906,144.909729 101.058289,144.909668 C173.013611,144.907318 244.968933,144.907623 316.924255,144.907822 C317.923645,144.907822 318.923218,144.897186 319.922363,144.913818 C326.800079,145.028366 331.495209,149.127823 331.707581,155.196838 C331.923187,161.356522 327.018158,166.019196 319.936981,166.030502 C286.124725,166.084534 252.312332,166.057236 218.000000,166.058868 z"/>
  <path fill="#D7EEFF" opacity="1.000000" stroke="none" d=" M142.999969,125.267586 C127.850945,125.266556 113.201790,125.302071 98.552956,125.248375 C91.276566,125.221695 86.339462,121.036346 86.247169,115.017250 C86.148918,108.610634 91.100975,104.083534 98.523277,104.076927 C139.973328,104.040031 181.423416,104.069817 222.873489,104.044533 C227.765076,104.041550 231.707321,105.669441 233.981461,110.189636 C235.876724,113.956703 235.266815,117.624657 232.981918,121.056145 C230.434265,124.882271 226.555511,125.293800 222.404968,125.287010 C196.103363,125.244011 169.801651,125.266457 142.999969,125.267586 z"/>
  <path fill="#D5EDFE" opacity="1.000000" stroke="none" d=" M260.390198,388.459534 C252.213516,393.816620 243.577805,396.352264 234.154587,396.310272 C223.033875,396.260712 211.912796,396.298645 200.495361,396.298645 C200.495361,362.214142 200.495361,328.657593 200.495361,295.228180 C200.788925,294.998383 200.922058,294.803345 201.050949,294.806122 C215.644226,295.118713 230.469254,293.938690 244.773514,296.140778 C264.185577,299.129211 278.054413,315.612274 279.765228,335.270966 C280.478882,343.471039 280.172943,351.958771 278.885468,360.086792 C277.017731,371.878357 270.606842,381.347717 260.390198,388.459534 M241.989151,375.932465 C248.669418,373.037872 252.870377,367.615753 253.660446,360.805328 C254.723068,351.645508 255.501999,342.144897 254.241180,333.091553 C252.041931,317.299805 241.447708,310.870850 225.230103,313.924316 C225.230103,334.918091 225.230103,355.947174 225.230103,377.928253 C230.800720,377.313110 236.005875,376.738312 241.989151,375.932465 z"/>
  <path fill="#D5EEFE" opacity="1.000000" stroke="none" d=" M459.031250,356.927704 C456.042664,375.810303 447.502686,390.065125 428.725281,395.848877 C400.678802,404.487732 373.848846,386.627594 371.237366,357.149567 C370.352966,347.166931 370.541290,336.683380 372.603424,326.928467 C377.163330,305.358124 394.118988,292.802917 415.917297,293.039307 C436.681061,293.264496 453.468048,306.558655 457.674164,327.729980 C459.523804,337.039948 458.680481,346.884888 459.031250,356.927704 M396.504791,359.758484 C398.228577,367.662354 400.951630,374.994720 409.546082,377.750275 C420.427368,381.239075 429.731049,375.376221 432.835114,362.905487 C435.687408,351.446259 435.625977,339.812317 432.925232,328.322998 C431.262878,321.251221 427.811890,315.226501 420.187897,313.031403 C409.298859,309.896240 399.432159,315.517731 397.447205,327.725159 C395.789795,337.917969 396.580505,348.508881 396.504791,359.758484 z"/>
  <path fill="#D6EEFE" opacity="1.000000" stroke="none" d=" M323.045776,377.434692 C336.512238,377.435059 349.480469,377.435059 362.815277,377.435059 C362.815277,383.737854 362.815277,389.629181 362.815277,395.930298 C339.792297,395.930298 316.740051,395.930298 293.344818,395.930298 C293.344818,362.312683 293.344818,328.604401 293.344818,294.620361 C316.570923,294.620361 339.641846,294.620361 363.021454,294.620361 C363.021454,300.801025 363.021454,306.707794 363.021454,313.280060 C347.997345,313.280060 333.110779,313.280060 317.983093,313.280060 C317.983093,320.715637 317.983093,327.492859 317.983093,334.880249 C330.591034,334.880249 343.147491,334.880249 355.941101,334.880249 C355.941101,341.089325 355.941101,346.695343 355.941101,352.941284 C343.420685,352.941284 330.873688,352.941284 318.032227,352.941284 C318.032227,361.302673 318.032227,369.029205 318.032227,377.094849 C319.663239,377.217468 321.105377,377.325867 323.045776,377.434692 z"/>
  <path fill="#D5EDFE" opacity="1.000000" stroke="none" d=" M107.620613,347.552673 C112.202599,330.795471 116.690811,314.435181 121.052704,298.041290 C121.752922,295.409576 122.813065,294.210114 125.786041,294.299103 C133.403748,294.527100 141.032806,294.375183 149.272018,294.375183 C148.702026,296.531738 148.382126,298.097443 147.876968,299.600922 C137.547394,330.344452 127.136658,361.060974 116.933968,391.846466 C115.791336,395.294220 114.252029,396.563904 110.615990,396.389191 C104.298592,396.085632 97.946968,396.486237 91.630905,396.169128 C90.139618,396.094208 87.860634,394.635406 87.414474,393.315979 C76.492210,361.015656 65.768036,328.648346 55.021832,296.288574 C54.924942,295.996826 55.009800,295.644745 55.009800,294.478424 C63.391708,294.478424 71.778839,294.341187 80.147736,294.669189 C81.089882,294.706146 82.321671,297.263428 82.756516,298.835327 C88.566055,319.835602 94.255844,340.868958 99.981522,361.892426 C100.416771,363.490570 100.898155,365.076141 101.811272,368.235565 C103.960396,360.547272 105.722687,354.242828 107.620613,347.552673 z"/>
  <path fill="#D7EEFF" opacity="1.000000" stroke="none" d=" M158.794205,373.999939 C158.794144,347.367798 158.794144,321.235626 158.794144,294.726562 C166.884705,294.726562 174.613419,294.726562 182.736618,294.726562 C182.736618,328.411652 182.736618,362.087097 182.736618,396.046936 C174.863861,396.046936 167.136353,396.046936 158.794266,396.046936 C158.794266,388.719299 158.794266,381.609589 158.794205,373.999939 z"/>
  <path fill="#3095DF" opacity="1.000000" stroke="none" d=" M470.905212,205.495758 C470.556946,204.030701 470.040741,202.105118 470.035583,200.178162 C469.953705,169.548843 469.937225,138.919342 469.878845,107.761330 C469.851837,107.232773 469.929626,107.173943 470.113464,107.448746 C470.474731,107.814362 470.652100,107.905159 470.829468,107.995949 C470.877960,140.342163 470.926483,172.688370 470.905212,205.495758 z"/>
  <path fill="#41A5EE" opacity="1.000000" stroke="none" d=" M470.878967,107.778412 C470.652100,107.905159 470.474731,107.814362 470.162048,107.453094 C470.327332,107.308716 470.627899,107.434799 470.878967,107.778412 z"/>
  <path fill="#0278CC" opacity="1.000000" stroke="none" d=" M241.600082,376.048004 C236.005875,376.738312 230.800720,377.313110 225.230103,377.928253 C225.230103,355.947174 225.230103,334.918091 225.230103,313.924316 C241.447708,310.870850 252.041931,317.299805 254.241180,333.091553 C255.501999,342.144897 254.723068,351.645508 253.660446,360.805328 C252.870377,367.615753 248.669418,373.037872 241.600082,376.048004 z"/>
  <path fill="#0379CD" opacity="1.000000" stroke="none" d=" M396.395905,359.341003 C396.580505,348.508881 395.789795,337.917969 397.447205,327.725159 C399.432159,315.517731 409.298859,309.896240 420.187897,313.031403 C427.811890,315.226501 431.262878,321.251221 432.925232,328.322998 C435.625977,339.812317 435.687408,351.446259 432.835114,362.905487 C429.731049,375.376221 420.427368,381.239075 409.546082,377.750275 C400.951630,374.994720 398.228577,367.662354 396.395905,359.341003 z"/>
</svg>