<?xml version="1.0" encoding="utf-8"?>
<svg version="1.1" id="Layer_1" x="0px" y="0px" width="100%" viewBox="0 0 512 512" enable-background="new 0 0 512 512" xmlns="http://www.w3.org/2000/svg">
  <path fill="#000000" opacity="1.000000" stroke="none" d=" M384.000000,513.000000 C264.312439,513.000000 144.624878,513.000000 24.361065,512.638916 C11.630316,509.462036 1.828860,496.080841 1.846843,484.284241 C2.078462,332.343903 1.997156,180.403091 2.032233,28.462399 C2.032675,26.548264 2.335484,24.587950 2.807046,22.727745 C5.673636,11.419711 13.900079,5.283695 24.000000,1.000000 C116.687561,1.000000 209.375122,1.000000 302.608765,1.340325 C304.571625,2.756925 306.136047,3.685362 307.383636,4.931085 C338.971130,36.471447 370.519775,68.050735 402.095184,99.603188 C404.889496,102.395500 406.113098,105.486504 406.092896,109.606789 C405.928009,143.251770 406.234802,176.900909 405.807098,210.541260 C405.718750,217.491104 407.640747,222.640244 412.072235,227.665527 C429.594055,247.535019 439.211914,271.181610 441.756500,297.179199 C444.302673,323.192871 440.234680,348.523499 427.498566,371.860321 C425.751099,375.062317 426.229889,376.862793 428.741455,379.353363 C452.631470,403.044067 476.318878,426.939148 500.217590,450.621033 C505.434326,455.790375 510.151337,461.165863 513.000000,468.000000 C513.000000,475.354248 513.000000,482.708496 512.648560,490.628235 C510.567474,494.260406 509.080383,497.498322 507.059509,500.359161 C502.374908,506.990936 495.353882,510.290070 488.000000,513.000000 C482.977905,513.000000 477.955811,513.000000 472.352539,512.632935 C465.447144,510.866028 460.159668,507.754364 455.582703,503.133331 C440.131104,487.532990 424.565826,472.045197 409.028107,456.530273 C408.204010,455.707397 407.233795,455.030853 406.000000,454.012451 C406.000000,465.303040 406.033234,475.949219 405.963715,486.594727 C405.953461,488.169647 405.556152,489.765900 405.170990,491.310669 C402.342682,502.654510 394.045227,508.685913 384.000000,513.000000 M22.000000,162.500000 C22.000000,267.497925 21.999800,372.495880 22.000296,477.493805 C22.000349,488.805450 26.153765,492.999329 37.362911,492.999420 C148.528107,493.000366 259.693329,493.000000 370.858521,492.999939 C371.858521,492.999939 372.865204,493.074829 373.857391,492.986755 C380.039093,492.437897 384.928589,488.874329 384.956665,484.484192 C385.063263,467.818420 385.358704,451.136902 384.680115,434.498138 C384.552856,431.377441 380.549194,428.126007 377.743896,425.587402 C376.949219,424.868286 373.908722,426.149506 372.164581,427.036957 C357.663544,434.415192 342.286041,439.524139 326.190552,440.728912 C311.493256,441.829010 296.609589,441.796692 281.986145,438.073151 C258.959991,432.210022 238.626617,421.702576 221.523453,405.062012 C211.288513,395.103882 202.719498,383.924286 196.341736,371.670471 C194.102814,371.798401 192.339035,371.986481 190.575195,371.987213 C150.242401,372.003845 109.909592,372.000031 69.576790,372.000000 C68.910133,372.000000 68.239449,372.047699 67.577431,371.992249 C60.757133,371.420593 55.008724,367.409119 55.894642,360.063904 C56.618130,354.065460 60.178635,351.000092 67.959541,351.000061 C106.125710,350.999969 144.291870,351.000000 182.458038,351.000000 C184.162964,351.000000 185.867889,351.000000 187.077103,351.000000 C173.333969,292.902069 185.696854,242.995819 234.281601,206.787399 C282.377869,170.943039 333.582550,172.818695 384.763794,201.691376 C384.763794,174.192627 384.763794,146.756042 384.763794,119.000000 C382.900116,119.000000 381.268463,119.000000 379.636810,119.000000 C357.970428,119.000000 336.304047,119.012390 314.637665,118.995346 C301.664581,118.985146 288.018188,105.337212 288.005798,92.375687 C287.984680,70.209335 288.000000,48.042946 288.000000,25.876570 C288.000000,24.290936 288.000000,22.705303 288.000000,21.141773 C286.845886,21.066389 286.355011,21.006262 285.864166,21.006233 C202.531937,21.001345 119.199638,20.954599 35.867546,21.064304 C26.511063,21.076622 22.051830,24.949156 22.032192,35.501720 C21.954029,77.501022 22.000000,119.500549 22.000000,162.500000 M420.999908,322.204346 C420.999939,317.538879 420.956512,312.872894 421.007904,308.208008 C421.180725,292.520325 417.340942,277.838440 410.411926,263.810272 C403.245667,249.301788 393.785706,236.766464 381.141602,226.515076 C372.014893,219.115509 362.002167,213.445160 351.226349,209.006485 C336.469269,202.927887 321.028442,201.306168 305.199463,201.960358 C292.594452,202.481339 280.549530,205.400711 269.128387,210.487686 C252.732697,217.790344 238.450287,227.995270 227.156357,242.239807 C219.972946,251.299896 214.361496,261.163177 209.997070,271.794495 C203.934402,286.562592 202.314499,301.996948 202.959854,317.824768 C203.473923,330.432739 206.421570,342.470093 211.500778,353.892120 C218.794662,370.294464 229.014679,384.567871 243.258408,395.858887 C252.317932,403.040314 262.184082,408.643402 272.817139,413.008057 C287.589142,419.071625 303.022308,420.676392 318.849030,420.040985 C331.460449,419.534668 343.487885,416.554443 354.913116,411.487183 C371.327332,404.207245 385.583466,393.961395 396.873596,379.722351 C404.055115,370.665070 410.103485,360.952301 413.869659,350.109802 C416.911682,341.351868 418.670258,332.148163 420.999908,322.204346 M473.241302,490.769836 C480.699097,493.770264 487.828827,491.788727 491.805878,485.610229 C494.670197,481.160461 493.092529,473.590027 488.296844,468.794647 C464.411102,444.910309 440.525696,421.025604 416.634094,397.147125 C415.489868,396.003510 414.288361,394.917175 414.145691,394.782043 C407.910980,401.007874 401.934143,406.976196 395.835999,413.065643 C420.859100,438.156006 446.797852,464.164551 473.241302,490.769836 M349.499695,99.000000 C356.209900,99.000000 362.920135,99.000000 369.253601,99.000000 C348.787384,78.508301 328.438080,58.133686 308.000000,37.670174 C308.000000,53.240612 307.895721,68.982368 308.037994,84.721893 C308.127502,94.622528 312.188965,98.872002 322.547302,98.981277 C331.197266,99.072533 339.848907,99.000000 349.499695,99.000000 z"/>
  <path fill="#FFFFFF" opacity="1.000000" stroke="none" d=" M22.000000,162.000000 C22.000000,119.500549 21.954029,77.501022 22.032192,35.501720 C22.051830,24.949156 26.511063,21.076622 35.867546,21.064304 C119.199638,20.954599 202.531937,21.001345 285.864166,21.006233 C286.355011,21.006262 286.845886,21.066389 288.000000,21.141773 C288.000000,22.705303 288.000000,24.290936 288.000000,25.876570 C288.000000,48.042946 287.984680,70.209335 288.005798,92.375687 C288.018188,105.337212 301.664581,118.985146 314.637665,118.995346 C336.304047,119.012390 357.970428,119.000000 379.636810,119.000000 C381.268463,119.000000 382.900116,119.000000 384.763794,119.000000 C384.763794,146.756042 384.763794,174.192627 384.763794,201.691376 C333.582550,172.818695 282.377869,170.943039 234.281601,206.787399 C185.696854,242.995819 173.333969,292.902069 187.077103,351.000000 C185.867889,351.000000 184.162964,351.000000 182.458038,351.000000 C144.291870,351.000000 106.125710,350.999969 67.959541,351.000061 C60.178635,351.000092 56.618130,354.065460 55.894642,360.063904 C55.008724,367.409119 60.757133,371.420593 67.577431,371.992249 C68.239449,372.047699 68.910133,372.000000 69.576790,372.000000 C109.909592,372.000031 150.242401,372.003845 190.575195,371.987213 C192.339035,371.986481 194.102814,371.798401 196.341736,371.670471 C202.719498,383.924286 211.288513,395.103882 221.523453,405.062012 C238.626617,421.702576 258.959991,432.210022 281.986145,438.073151 C296.609589,441.796692 311.493256,441.829010 326.190552,440.728912 C342.286041,439.524139 357.663544,434.415192 372.164581,427.036957 C373.908722,426.149506 376.949219,424.868286 377.743896,425.587402 C380.549194,428.126007 384.552856,431.377441 384.680115,434.498138 C385.358704,451.136902 385.063263,467.818420 384.956665,484.484192 C384.928589,488.874329 380.039093,492.437897 373.857391,492.986755 C372.865204,493.074829 371.858521,492.999939 370.858521,492.999939 C259.693329,493.000000 148.528107,493.000366 37.362911,492.999420 C26.153765,492.999329 22.000349,488.805450 22.000296,477.493805 C21.999800,372.495880 22.000000,267.497925 22.000000,162.000000 M244.492859,73.000000 C186.543625,73.000000 128.594391,73.000008 70.645157,73.000023 C69.646034,73.000023 68.637497,72.910721 67.649277,73.014580 C60.216824,73.795677 55.246647,77.184425 55.905209,84.506729 C56.482433,90.924706 59.971882,93.999954 68.018822,93.999962 C123.470253,94.000031 178.921692,94.000000 234.373123,94.000000 C242.366119,94.000000 250.359238,94.026611 258.352081,93.990242 C263.336609,93.967567 267.473358,90.546974 267.998199,86.123749 C268.787506,79.471642 266.313080,74.980293 260.654724,74.091286 C255.665405,73.307381 250.548996,73.332260 244.492859,73.000000 M129.500153,164.000000 C170.815475,164.000000 212.130783,164.000000 253.446106,164.000000 C254.279083,164.000000 255.117294,164.061234 255.944199,163.990372 C263.356384,163.355164 268.801239,160.177338 268.089905,152.392410 C267.505585,145.997971 264.030670,143.000046 255.872116,143.000046 C206.560272,142.999985 157.248444,142.995392 107.936607,143.006653 C102.626747,143.007874 98.420944,146.936172 98.000763,152.179230 C97.591827,157.282104 100.877518,162.382874 105.826981,162.886337 C113.344719,163.651031 120.938690,163.666367 129.500153,164.000000 M104.500000,233.000000 C123.631554,233.000000 142.763275,233.044189 161.894562,232.973480 C167.759094,232.951797 172.452347,228.346405 172.721390,222.709763 C172.967438,217.555191 167.981094,212.063934 162.460007,212.047485 C130.186203,211.951340 97.911842,211.955093 65.637985,212.043091 C60.019436,212.058395 56.403763,216.455597 55.911446,221.951996 C55.268082,229.134674 60.984158,232.956299 67.566032,232.985092 C79.543816,233.037476 91.521988,233.000000 104.500000,233.000000 M161.388092,282.890137 C158.592010,282.260101 155.800308,281.107697 152.999146,281.084229 C133.834091,280.923676 114.667053,281.000000 95.500656,281.000000 C86.334122,281.000000 77.157631,280.737000 68.004189,281.083160 C60.673351,281.360413 55.190701,284.737793 55.913647,292.669617 C56.495129,299.049377 59.968094,301.999939 68.197861,301.999969 C97.197456,302.000031 126.197739,301.898773 155.195969,302.097717 C160.138855,302.131622 163.593567,300.116547 165.770737,296.293884 C168.077820,292.243134 166.222717,286.700348 161.388092,282.890137 M79.502876,420.000000 C75.003571,420.000000 70.502281,419.915405 66.005447,420.020966 C60.091534,420.159851 56.452145,424.373535 55.889801,430.108795 C55.238152,436.754883 61.049709,441.071350 68.257607,441.042969 C95.419662,440.935913 122.582382,441.007538 149.744858,440.994873 C156.898727,440.991547 160.987152,437.196259 161.000000,430.630951 C161.013947,423.500153 157.251404,420.006592 149.491196,420.003418 C126.494743,419.993927 103.498299,420.000000 79.502876,420.000000 M202.000000,430.495544 C201.890305,423.870789 198.167953,419.979126 191.961212,420.000122 C186.369873,420.019043 182.384476,423.863190 181.950439,429.078278 C181.301544,436.874908 184.760849,440.000275 191.625153,440.886322 C197.556351,441.651855 201.580933,437.533447 202.000000,430.495544 M71.389107,162.072617 C76.803223,158.230392 77.490494,153.918533 75.750725,148.538742 C74.394264,144.344208 68.080742,141.401428 63.184650,143.213074 C60.461304,144.220749 57.353336,146.878937 56.478367,149.484818 C55.472233,152.481369 54.867928,156.256180 57.906567,159.591980 C61.763668,163.826279 65.978828,164.046829 71.389107,162.072617 z"/>
  <path fill="#FFFFFF" opacity="1.000000" stroke="none" d=" M420.999054,322.673279 C418.670258,332.148163 416.911682,341.351868 413.869659,350.109802 C410.103485,360.952301 404.055115,370.665070 396.873596,379.722351 C385.583466,393.961395 371.327332,404.207245 354.913116,411.487183 C343.487885,416.554443 331.460449,419.534668 318.849030,420.040985 C303.022308,420.676392 287.589142,419.071625 272.817139,413.008057 C262.184082,408.643402 252.317932,403.040314 243.258408,395.858887 C229.014679,384.567871 218.794662,370.294464 211.500778,353.892120 C206.421570,342.470093 203.473923,330.432739 202.959854,317.824768 C202.314499,301.996948 203.934402,286.562592 209.997070,271.794495 C214.361496,261.163177 219.972946,251.299896 227.156357,242.239807 C238.450287,227.995270 252.732697,217.790344 269.128387,210.487686 C280.549530,205.400711 292.594452,202.481339 305.199463,201.960358 C321.028442,201.306168 336.469269,202.927887 351.226349,209.006485 C362.002167,213.445160 372.014893,219.115509 381.141602,226.515076 C393.785706,236.766464 403.245667,249.301788 410.411926,263.810272 C417.340942,277.838440 421.180725,292.520325 421.007904,308.208008 C420.956512,312.872894 420.999939,317.538879 420.999054,322.673279 M377.035034,250.557434 C369.451080,244.713348 362.373993,237.998306 354.168182,233.222717 C340.773621,225.427414 325.946594,222.499451 310.275330,222.842636 C297.712738,223.117752 285.906189,225.533005 274.585114,230.821640 C260.456238,237.421951 248.870483,247.056244 239.790253,259.717590 C224.570557,280.939789 220.729767,304.752319 225.554565,329.780548 C229.322800,349.328003 239.546112,365.571259 254.957428,378.575165 C268.434052,389.946594 283.796539,397.145752 301.138275,398.765442 C315.103394,400.069794 329.171478,399.386505 342.710297,394.078583 C363.452759,385.946381 379.307190,372.451660 389.983948,352.940735 C397.647827,338.935669 400.533722,323.921051 400.146606,307.943268 C399.837738,295.194672 397.259430,283.146545 391.343536,272.034943 C387.427673,264.679871 382.204132,258.021057 377.035034,250.557434 z"/>
  <path fill="#FFFFFF" opacity="1.000000" stroke="none" d=" M472.988953,490.471466 C446.797852,464.164551 420.859100,438.156006 395.835999,413.065643 C401.934143,406.976196 407.910980,401.007874 414.145691,394.782043 C414.288361,394.917175 415.489868,396.003510 416.634094,397.147125 C440.525696,421.025604 464.411102,444.910309 488.296844,468.794647 C493.092529,473.590027 494.670197,481.160461 491.805878,485.610229 C487.828827,491.788727 480.699097,493.770264 472.988953,490.471466 z"/>
  <path fill="#FFFFFF" opacity="1.000000" stroke="none" d=" M348.999756,99.000000 C339.848907,99.000000 331.197266,99.072533 322.547302,98.981277 C312.188965,98.872002 308.127502,94.622528 308.037994,84.721893 C307.895721,68.982368 308.000000,53.240612 308.000000,37.670174 C328.438080,58.133686 348.787384,78.508301 369.253601,99.000000 C362.920135,99.000000 356.209900,99.000000 348.999756,99.000000 z"/>
  <path fill="#000000" opacity="1.000000" stroke="none" d=" M244.990784,73.000000 C250.548996,73.332260 255.665405,73.307381 260.654724,74.091286 C266.313080,74.980293 268.787506,79.471642 267.998199,86.123749 C267.473358,90.546974 263.336609,93.967567 258.352081,93.990242 C250.359238,94.026611 242.366119,94.000000 234.373123,94.000000 C178.921692,94.000000 123.470253,94.000031 68.018822,93.999962 C59.971882,93.999954 56.482433,90.924706 55.905209,84.506729 C55.246647,77.184425 60.216824,73.795677 67.649277,73.014580 C68.637497,72.910721 69.646034,73.000023 70.645157,73.000023 C128.594391,73.000008 186.543625,73.000000 244.990784,73.000000 z"/>
  <path fill="#000000" opacity="1.000000" stroke="none" d=" M129.000214,164.000000 C120.938690,163.666367 113.344719,163.651031 105.826981,162.886337 C100.877518,162.382874 97.591827,157.282104 98.000763,152.179230 C98.420944,146.936172 102.626747,143.007874 107.936607,143.006653 C157.248444,142.995392 206.560272,142.999985 255.872116,143.000046 C264.030670,143.000046 267.505585,145.997971 268.089905,152.392410 C268.801239,160.177338 263.356384,163.355164 255.944199,163.990372 C255.117294,164.061234 254.279083,164.000000 253.446106,164.000000 C212.130783,164.000000 170.815475,164.000000 129.000214,164.000000 z"/>
  <path fill="#000000" opacity="1.000000" stroke="none" d=" M104.000000,233.000000 C91.521988,233.000000 79.543816,233.037476 67.566032,232.985092 C60.984158,232.956299 55.268082,229.134674 55.911446,221.951996 C56.403763,216.455597 60.019436,212.058395 65.637985,212.043091 C97.911842,211.955093 130.186203,211.951340 162.460007,212.047485 C167.981094,212.063934 172.967438,217.555191 172.721390,222.709763 C172.452347,228.346405 167.759094,232.951797 161.894562,232.973480 C142.763275,233.044189 123.631554,233.000000 104.000000,233.000000 z"/>
  <path fill="#000000" opacity="1.000000" stroke="none" d=" M161.787735,282.954041 C166.222717,286.700348 168.077820,292.243134 165.770737,296.293884 C163.593567,300.116547 160.138855,302.131622 155.195969,302.097717 C126.197739,301.898773 97.197456,302.000031 68.197861,301.999969 C59.968094,301.999939 56.495129,299.049377 55.913647,292.669617 C55.190701,284.737793 60.673351,281.360413 68.004189,281.083160 C77.157631,280.737000 86.334122,281.000000 95.500656,281.000000 C114.667053,281.000000 133.834091,280.923676 152.999146,281.084229 C155.800308,281.107697 158.592010,282.260101 161.787735,282.954041 z"/>
  <path fill="#000000" opacity="1.000000" stroke="none" d=" M80.002365,420.000000 C103.498299,420.000000 126.494743,419.993927 149.491196,420.003418 C157.251404,420.006592 161.013947,423.500153 161.000000,430.630951 C160.987152,437.196259 156.898727,440.991547 149.744858,440.994873 C122.582382,441.007538 95.419662,440.935913 68.257607,441.042969 C61.049709,441.071350 55.238152,436.754883 55.889801,430.108795 C56.452145,424.373535 60.091534,420.159851 66.005447,420.020966 C70.502281,419.915405 75.003571,420.000000 80.002365,420.000000 z"/>
  <path fill="#000000" opacity="1.000000" stroke="none" d=" M202.000000,430.923920 C201.580933,437.533447 197.556351,441.651855 191.625153,440.886322 C184.760849,440.000275 181.301544,436.874908 181.950439,429.078278 C182.384476,423.863190 186.369873,420.019043 191.961212,420.000122 C198.167953,419.979126 201.890305,423.870789 202.000000,430.923920 z"/>
  <path fill="#000000" opacity="1.000000" stroke="none" d=" M71.126419,162.369675 C65.978828,164.046829 61.763668,163.826279 57.906567,159.591980 C54.867928,156.256180 55.472233,152.481369 56.478367,149.484818 C57.353336,146.878937 60.461304,144.220749 63.184650,143.213074 C68.080742,141.401428 74.394264,144.344208 75.750725,148.538742 C77.490494,153.918533 76.803223,158.230392 71.126419,162.369675 z"/>
  <path fill="#000000" opacity="1.000000" stroke="none" d=" M377.300537,250.803986 C382.204132,258.021057 387.427673,264.679871 391.343536,272.034943 C397.259430,283.146545 399.837738,295.194672 400.146606,307.943268 C400.533722,323.921051 397.647827,338.935669 389.983948,352.940735 C379.307190,372.451660 363.452759,385.946381 342.710297,394.078583 C329.171478,399.386505 315.103394,400.069794 301.138275,398.765442 C283.796539,397.145752 268.434052,389.946594 254.957428,378.575165 C239.546112,365.571259 229.322800,349.328003 225.554565,329.780548 C220.729767,304.752319 224.570557,280.939789 239.790253,259.717590 C248.870483,247.056244 260.456238,237.421951 274.585114,230.821640 C285.906189,225.533005 297.712738,223.117752 310.275330,222.842636 C325.946594,222.499451 340.773621,225.427414 354.168182,233.222717 C362.373993,237.998306 369.451080,244.713348 377.300537,250.803986 M379.000000,314.414825 C379.469391,305.043488 378.559875,295.896240 375.001984,287.090973 C369.179321,272.680603 359.864502,261.184906 346.511230,253.202194 C334.503265,246.023712 321.465393,243.177338 307.406097,243.876602 C297.286957,244.379913 288.109131,247.442825 279.452789,252.165527 C266.123322,259.437805 256.325073,270.160400 250.372940,284.200623 C241.728287,304.592041 242.734238,324.562927 253.462143,343.946106 C260.659149,356.949646 271.185974,366.218567 284.757080,372.440155 C298.878571,378.914032 313.393372,379.765381 328.138794,376.292389 C343.202484,372.744415 355.753937,364.645447 365.135529,352.254883 C373.349915,341.405945 378.724731,329.306488 379.000000,314.414825 z"/>
  <path fill="#FFFFFF" opacity="1.000000" stroke="none" d=" M379.000000,314.898865 C378.724731,329.306488 373.349915,341.405945 365.135529,352.254883 C355.753937,364.645447 343.202484,372.744415 328.138794,376.292389 C313.393372,379.765381 298.878571,378.914032 284.757080,372.440155 C271.185974,366.218567 260.659149,356.949646 253.462143,343.946106 C242.734238,324.562927 241.728287,304.592041 250.372940,284.200623 C256.325073,270.160400 266.123322,259.437805 279.452789,252.165527 C288.109131,247.442825 297.286957,244.379913 307.406097,243.876602 C321.465393,243.177338 334.503265,246.023712 346.511230,253.202194 C359.864502,261.184906 369.179321,272.680603 375.001984,287.090973 C378.559875,295.896240 379.469391,305.043488 379.000000,314.898865 M304.038818,283.337341 C306.200836,284.226196 308.288361,285.483917 310.538116,285.938293 C319.004303,287.648254 327.706512,289.256195 332.056183,297.788940 C334.471039,302.526154 335.843842,307.931824 336.897217,313.194183 C338.554260,321.472412 346.471130,322.856995 352.607239,319.738983 C357.050842,317.481079 358.735748,308.846893 356.815643,301.537659 C351.303864,280.555969 333.617706,264.924713 311.635590,265.864990 C307.330200,266.049164 304.044464,267.570526 302.760956,271.042389 C301.422852,274.661896 300.389984,279.038666 304.038818,283.337341 z"/>
  <path fill="#000000" opacity="1.000000" stroke="none" d=" M303.994507,282.925842 C300.389984,279.038666 301.422852,274.661896 302.760956,271.042389 C304.044464,267.570526 307.330200,266.049164 311.635590,265.864990 C333.617706,264.924713 351.303864,280.555969 356.815643,301.537659 C358.735748,308.846893 357.050842,317.481079 352.607239,319.738983 C346.471130,322.856995 338.554260,321.472412 336.897217,313.194183 C335.843842,307.931824 334.471039,302.526154 332.056183,297.788940 C327.706512,289.256195 319.004303,287.648254 310.538116,285.938293 C308.288361,285.483917 306.200836,284.226196 303.994507,282.925842 z"/>
</svg>