<?xml version="1.0" standalone="no"?>
<!DOCTYPE svg PUBLIC "-//W3C//DTD SVG 20010904//EN"
 "http://www.w3.org/TR/2001/REC-SVG-20010904/DTD/svg10.dtd">
<svg version="1.0" xmlns="http://www.w3.org/2000/svg"
 width="512.000000pt" height="512.000000pt" viewBox="0 0 512.000000 512.000000"
 preserveAspectRatio="xMidYMid meet">
<g transform="translate(0.000000,512.000000) scale(0.100000,-0.100000)"
fill="#000000" stroke="none">
<path d="M600 5000 c-282 -73 -509 -301 -580 -584 -20 -77 -20 -115 -20 -1741
0 -1632 0 -1663 20 -1741 60 -234 218 -428 435 -530 177 -83 107 -79 1350 -79
l1100 0 47 28 c68 39 98 95 98 178 0 84 -35 145 -102 178 l-44 21 -1050 0
c-638 0 -1072 4 -1109 10 -129 21 -249 110 -300 223 -14 29 -29 85 -35 125
-14 98 -14 3076 0 3174 14 98 48 168 114 234 66 65 136 100 231 114 39 5 230
10 425 10 195 0 386 -5 425 -10 95 -14 165 -49 231 -114 73 -74 102 -139 118
-269 15 -123 36 -164 104 -205 l47 -27 1241 -5 1240 -5 42 -28 c67 -44 84 -90
90 -234 l5 -123 -1818 0 -1818 0 -43 -25 c-63 -37 -94 -95 -94 -175 0 -82 31
-138 98 -177 l47 -28 1813 -3 1812 -2 0 -697 0 -696 25 -43 c76 -129 274 -129
350 0 l25 43 0 1049 c0 1155 3 1096 -62 1231 -45 93 -168 216 -259 260 -138
66 -70 63 -1321 63 l-1134 0 -13 49 c-48 190 -215 391 -403 485 -170 85 -178
86 -752 85 -462 0 -507 -2 -576 -19z"/>
<path d="M4063 1984 c-24 -14 -54 -44 -68 -68 l-25 -43 0 -306 0 -307 -307 0
-306 0 -43 -25 c-63 -37 -94 -95 -94 -175 0 -82 31 -138 98 -177 l47 -28 303
-3 302 -4 0 -300 0 -301 25 -43 c76 -129 274 -129 350 0 l25 43 0 301 0 300
303 4 302 3 47 28 c67 39 98 95 98 177 0 80 -31 138 -94 175 l-43 25 -306 0
-307 0 0 307 0 306 -25 43 c-37 63 -95 94 -176 94 -51 0 -73 -5 -106 -26z"/>
</g>
</svg>
