<svg version="1.1" id="Layer_1" xmlns="http://www.w3.org/2000/svg" xmlns:xlink="http://www.w3.org/1999/xlink" x="0px" y="0px"
	 width="100%" viewBox="0 0 512 512" enable-background="new 0 0 512 512" xml:space="preserve">
<path fill="#000000" opacity="1.000000" stroke="none" 
	d="
M258.531342,1.000000 
	C279.025360,20.014784 297.057831,40.957886 316.573151,60.474297 
	C328.424042,72.325882 339.658508,84.793579 351.179565,96.975372 
	C357.341675,103.490822 363.525879,109.985397 369.696747,116.492561 
	C372.328613,119.267838 373.438141,122.441521 373.420502,126.391518 
	C373.288879,155.870438 373.463348,185.351089 373.239807,214.828903 
	C373.201935,219.826447 374.549316,222.181503 379.620789,223.400955 
	C410.359558,230.792343 435.769897,247.252609 456.047485,271.123230 
	C473.309113,291.443512 484.215668,315.030334 488.476379,341.643860 
	C492.162811,364.670258 490.966339,387.307281 484.202759,409.514404 
	C478.303009,428.885437 468.634735,446.253082 455.456482,461.836334 
	C443.589050,475.869476 429.668182,487.259735 413.729950,495.954071 
	C399.750824,503.579773 384.835480,509.255341 368.847778,511.460785 
	C367.730988,511.614838 366.671692,512.185669 365.292847,512.781372 
	C349.979095,513.000000 334.958221,513.000000 319.278198,512.699036 
	C316.001862,510.780304 312.917450,510.992371 310.070496,510.311401 
	C271.853943,501.171265 241.738602,480.317535 219.915192,447.717834 
	C217.104019,443.518524 214.221497,442.257935 209.445099,442.276398 
	C166.802917,442.441162 124.159851,442.378052 81.517044,442.379364 
	C77.536278,442.379486 73.617332,442.126648 69.642471,441.465393 
	C44.246384,437.240540 23.651613,413.301056 23.650845,387.667419 
	C23.647532,277.229187 23.544643,166.790802 23.734549,56.352913 
	C23.774527,33.104172 35.383244,16.610029 55.808769,5.929774 
	C59.165344,4.174661 63.235912,3.927175 66.000000,1.000000 
	C130.020889,1.000000 194.041794,1.000000 258.531342,1.000000 
M46.337704,239.499939 
	C46.341423,287.159088 46.566780,334.819763 46.247303,382.476746 
	C46.105824,403.581268 62.086212,419.535675 83.280769,419.608490 
	C121.941696,419.741302 160.603424,419.654541 199.264755,419.610107 
	C200.982422,419.608124 202.974548,420.290771 204.371811,418.470978 
	C204.371811,417.968872 204.518585,417.423004 204.350815,417.002716 
	C194.987930,393.547577 194.240692,369.192078 196.697968,344.489899 
	C197.078369,340.665863 200.219635,336.048370 197.386261,333.272980 
	C194.747391,330.688171 189.737244,332.411804 185.784271,332.398956 
	C160.621292,332.317108 135.457870,332.388977 110.294754,332.334320 
	C101.882080,332.316040 96.967682,325.331573 99.635101,317.425018 
	C101.525879,311.820526 105.027504,309.671936 112.532799,309.666718 
	C142.028763,309.646240 171.525009,309.594727 201.020386,309.724823 
	C204.685989,309.740997 206.804565,308.610291 208.352005,305.254608 
	C211.483337,298.464264 214.856293,291.785217 219.175674,285.617554 
	C220.613083,283.565094 222.927765,281.827728 222.869720,278.370178 
	C219.979385,278.370178 217.341293,278.370270 214.703201,278.370178 
	C180.374557,278.368713 146.045883,278.387634 111.717270,278.350708 
	C103.653389,278.342010 98.806374,273.725342 98.674171,266.382538 
	C98.586716,261.524689 103.705734,255.391663 111.548508,255.471024 
	C150.872452,255.868805 190.203491,255.510147 229.529938,255.754959 
	C238.863876,255.813065 246.443787,254.228561 254.518311,248.079056 
	C280.902771,227.984879 311.298187,218.301773 344.634003,218.722641 
	C349.066010,218.778580 350.796204,217.677963 350.750610,212.884842 
	C350.528778,189.556808 350.547455,166.224625 350.743835,142.896103 
	C350.781372,138.436356 349.327911,137.219589 345.001526,137.265182 
	C326.172913,137.463654 307.331940,137.697388 288.513153,137.220764 
	C274.911713,136.876297 263.235107,131.646332 253.948593,121.202461 
	C245.151703,111.309265 241.953003,99.537460 241.736877,86.850571 
	C241.413330,67.858658 241.655396,48.857174 241.646973,29.859770 
	C241.644119,23.398397 241.630417,23.373964 234.976562,23.373116 
	C183.983521,23.366619 132.990479,23.364586 81.997437,23.373837 
	C61.812202,23.377499 46.356533,38.829155 46.351852,59.024403 
	C46.337986,118.849579 46.341728,178.674744 46.337704,239.499939 
M433.615875,451.133850 
	C441.166260,443.101715 447.565887,434.216278 452.645416,424.454498 
	C465.343262,400.051941 470.107086,374.297546 465.719360,346.948395 
	C462.053497,324.098755 453.007507,303.567749 437.919495,286.216705 
	C418.396820,263.765839 394.089417,248.943527 364.279510,244.019485 
	C344.482025,240.749298 324.912323,241.472015 305.812286,247.733673 
	C287.140076,253.855103 270.681244,263.593384 256.393616,277.446503 
	C240.559814,292.798767 229.865036,311.059875 223.615479,331.803253 
	C219.121460,346.719666 217.287384,362.115936 219.126190,377.975525 
	C220.575745,390.477753 223.169815,402.601990 228.167404,413.964447 
	C241.370163,443.982056 262.674255,466.302704 292.838654,479.912018 
	C317.257233,490.928925 342.556824,493.647827 368.604248,487.993896 
	C393.759888,482.533539 415.297394,470.270386 433.615875,451.133850 
M276.489410,110.094238 
	C279.530212,111.813721 282.638275,113.263962 286.189606,113.705444 
	C301.580719,115.618752 317.008911,114.438324 332.423462,114.344597 
	C332.658112,114.343170 332.890198,113.927208 333.641510,113.210617 
	C311.284210,89.704590 288.936310,66.208466 266.588440,42.712341 
	C266.174164,42.961758 265.759918,43.211178 265.345673,43.460598 
	C265.345673,57.230213 265.777985,71.017891 265.203827,84.763519 
	C264.773224,95.071770 267.848846,103.276268 276.489410,110.094238 
z"/>
<path fill="#000000" opacity="1.000000" stroke="none" 
	d="
M171.000061,201.658630 
	C186.486862,201.658905 201.474396,201.568207 216.460129,201.694016 
	C225.563095,201.770432 229.797943,206.287399 229.334702,214.931305 
	C229.000610,221.165634 224.115463,225.055984 215.864151,225.303619 
	C209.541931,225.493362 203.209778,225.358994 196.882050,225.357697 
	C170.072357,225.352219 143.262634,225.350739 116.452965,225.320938 
	C113.974670,225.318192 111.536209,225.274384 109.044968,224.656052 
	C102.223312,222.962952 98.305405,218.709534 98.709740,212.883957 
	C99.163948,206.339767 104.304062,201.709579 111.552116,201.681885 
	C131.201172,201.606781 150.850708,201.657883 171.000061,201.658630 
z"/>
<path fill="#000000" opacity="1.000000" stroke="none" 
	d="
M290.398743,359.539124 
	C293.192047,356.435486 296.427399,355.590179 300.097046,355.619812 
	C308.758606,355.689728 317.428314,355.424805 326.080292,355.719635 
	C330.567596,355.872589 331.848236,354.211548 331.726807,349.922821 
	C331.472321,340.934906 331.566925,331.933167 331.698120,322.939758 
	C331.775177,317.658844 334.767242,313.877716 339.762817,312.135773 
	C343.959473,310.672455 349.176880,312.380676 352.286194,316.115967 
	C354.003998,318.179596 354.375061,320.523041 354.360016,323.101593 
	C354.305664,332.429688 354.462128,341.760529 354.289673,351.085693 
	C354.224457,354.613159 355.547821,355.745667 358.969727,355.687195 
	C367.962280,355.533508 376.960907,355.751984 385.954193,355.621399 
	C394.338745,355.499664 397.510986,360.991943 398.019562,366.811584 
	C398.607666,373.541992 393.296173,378.276001 385.835968,378.341248 
	C377.174438,378.417053 368.503815,378.598816 359.853027,378.289185 
	C355.336761,378.127533 354.114624,379.778076 354.256683,384.066925 
	C354.537781,392.553162 354.379028,401.055542 354.328888,409.550781 
	C354.281189,417.637207 350.632111,421.380066 342.969574,421.346863 
	C335.576538,421.314819 331.686340,417.225983 331.656891,409.384521 
	C331.624969,400.889069 331.429840,392.386444 331.716339,383.900787 
	C331.868378,379.397888 330.153229,378.143494 325.884003,378.290405 
	C317.897522,378.565186 309.895020,378.387329 301.899231,378.374969 
	C289.287720,378.355438 284.639435,371.018860 290.398743,359.539124 
z"/>
</svg>