<?xml version="1.0" encoding="utf-8"?>
<svg version="1.1" id="Layer_1" x="0px" y="0px" width="100%" viewBox="0 0 512 512" enable-background="new 0 0 512 512" xmlns="http://www.w3.org/2000/svg">
  <path fill="#7401E0" opacity="1.000000" stroke="none" d=" M513.000000,249.000000 C513.000000,313.020905 513.000000,377.041779 512.531372,441.531494 C498.405151,442.019623 484.747589,442.038971 470.702576,441.886841 C468.518250,441.493500 466.721436,441.077698 464.924561,441.077301 C326.358826,441.047180 187.793076,441.045166 49.227345,441.091583 C47.121437,441.092285 45.015743,441.722107 42.446957,442.033936 C28.322639,442.006378 14.661320,442.003174 1.000000,442.000000 C1.000000,377.979095 1.000000,313.958221 1.468542,249.480469 C15.898539,249.011307 29.859991,248.999023 44.300926,249.007843 C137.093643,249.035278 229.406860,249.049622 321.720093,249.044647 C371.208954,249.041962 420.697845,249.006058 470.636383,248.993530 C485.057373,249.001266 499.028687,249.000641 513.000000,249.000000 M396.016846,388.531525 C403.991150,381.218689 409.522614,372.281738 411.287445,361.681763 C412.641541,353.548767 413.181335,345.120880 412.788666,336.885864 C411.555420,311.020294 392.865143,290.546814 367.655487,288.357513 C353.449921,287.123871 339.053680,288.081970 324.743347,288.085876 C324.501007,288.085938 324.258820,288.506012 324.036896,288.711273 C324.036896,326.157013 324.036896,363.579437 324.036896,401.153564 C325.024689,401.328766 325.820282,401.591675 326.616302,401.592773 C338.268951,401.609039 349.924835,401.758301 361.573425,401.534790 C374.272034,401.291107 385.763367,397.458893 396.016846,388.531525 M306.360962,366.872284 C306.462433,365.878479 306.651489,364.884796 306.652649,363.890900 C306.680634,339.395294 306.693756,314.899658 306.676270,290.404083 C306.675720,289.643555 306.320801,288.883331 306.142120,288.167297 C297.120148,288.167297 288.358032,288.167297 279.104462,288.167297 C279.104462,290.244232 279.106506,292.035004 279.104126,293.825775 C279.072510,317.487976 279.106262,341.150574 278.963837,364.812103 C278.926208,371.059662 277.191132,376.755188 271.129486,379.967682 C258.656891,386.577911 245.747589,379.380524 244.855331,365.355743 C244.717957,363.196411 244.691055,361.027222 244.689911,358.862549 C244.678314,337.032867 244.688110,315.203217 244.672516,293.373535 C244.671265,291.622467 244.526123,289.871521 244.445023,288.057617 C235.073303,288.057617 226.302246,288.057617 217.495819,288.057617 C217.298645,288.724030 217.044281,289.182526 217.044357,289.640991 C217.048416,315.135864 216.775177,340.636108 217.232056,366.123230 C217.438019,377.612518 222.354858,387.414612 231.855499,394.421783 C242.997498,402.639435 255.844254,403.997101 269.021118,402.735474 C290.806519,400.649628 304.198792,387.818665 306.360962,366.872284 M121.640121,345.072601 C114.791931,363.724426 107.943733,382.376221 100.878571,401.618988 C110.327271,401.618988 118.959908,401.746002 127.580078,401.475311 C128.803604,401.436920 130.535538,399.684601 131.051636,398.347168 C132.663269,394.170837 134.059326,389.871063 135.054047,385.508606 C135.976578,381.462677 137.778397,379.799683 142.186737,380.062927 C149.321289,380.488983 156.499908,380.177521 163.659912,380.177521 C174.252396,380.177521 174.252396,380.177521 177.519409,390.474060 C181.058136,401.626984 181.058136,401.627014 192.768692,401.627014 C198.474960,401.627014 204.181244,401.626984 209.857773,401.626984 C209.857773,400.521942 209.903717,400.343323 209.851288,400.200897 C196.417862,363.705841 183.008179,327.201904 169.413666,290.766907 C168.924408,289.455597 166.649216,288.083130 165.142014,288.006622 C158.996902,287.694641 152.816269,288.090302 146.669983,287.790039 C143.360504,287.628387 142.073227,288.979034 141.036758,291.869659 C134.753754,309.392303 128.300705,326.854034 121.640121,345.072601 z"/>
  <path fill="#903AE0" opacity="1.000000" stroke="none" d=" M470.186707,248.985153 C420.697845,249.006058 371.208954,249.041962 321.720093,249.044647 C229.406860,249.049622 137.093643,249.035278 44.334282,248.541260 C43.897129,235.923492 43.940685,223.793213 43.872658,211.663589 C43.863853,210.093002 43.278507,208.525635 42.985146,206.491425 C43.006824,147.110489 43.024658,88.194885 42.982388,29.279322 C42.974014,17.611790 47.744556,8.891976 58.129417,3.328594 C58.936996,2.895957 59.384918,1.791962 60.000000,1.000000 C161.020889,1.000000 262.041779,1.000000 363.495270,1.467770 C363.889008,35.828178 363.835144,69.720833 363.866211,103.613396 C363.867462,104.974075 364.673431,106.334015 365.163818,107.981422 C365.951294,109.161369 366.607635,110.125870 367.417847,110.936661 C400.590271,144.133286 433.774231,177.318390 466.973083,210.488586 C467.901703,211.416397 469.008331,212.166016 470.051147,213.467148 C470.109131,225.618774 470.147919,237.301971 470.186707,248.985153 M202.500000,185.217712 C169.194336,185.217682 135.888687,185.217606 102.583023,185.217758 C101.250801,185.217773 99.917290,185.182495 98.586571,185.227982 C91.201393,185.480377 86.213585,189.934387 86.231964,196.236496 C86.250275,202.516144 91.294968,206.853577 98.839333,206.855789 C172.278259,206.877213 245.717194,206.877258 319.156128,206.855759 C326.697815,206.853561 331.747589,202.509491 331.761566,196.233109 C331.775665,189.923935 326.793976,185.478043 319.403381,185.227829 C318.072662,185.182770 316.739166,185.217758 315.406952,185.217758 C278.104645,185.217697 240.802322,185.217896 202.500000,185.217712 M174.500000,166.064606 C198.152267,166.064590 221.804550,166.066040 245.456818,166.064163 C270.441589,166.062180 295.426514,166.107758 320.410980,166.019577 C327.117584,165.995911 331.880005,161.236938 331.698151,155.223755 C331.519501,149.317108 326.916962,145.091995 320.449677,144.913467 C319.284546,144.881302 318.117889,144.901978 316.951935,144.901978 C244.995743,144.901627 173.039566,144.901291 101.083374,144.903656 C99.417984,144.903717 97.746841,144.851456 96.088326,144.966690 C91.626991,145.276688 88.647156,147.717178 87.096184,151.786667 C84.288193,159.154327 89.475548,166.003204 98.046036,166.031296 C123.197128,166.113724 148.348648,166.063141 174.500000,166.064606 M196.500000,104.062386 C163.872925,104.062996 131.245804,104.040779 98.618774,104.081421 C91.140862,104.090736 86.222595,108.517395 86.266197,114.931656 C86.307449,120.999115 91.196922,125.269012 98.461433,125.275848 C139.911133,125.314835 181.360901,125.313728 222.810608,125.277473 C230.632004,125.270638 235.078430,121.273170 235.014633,114.601547 C234.953262,108.183151 230.166336,104.120811 222.469666,104.074944 C214.146713,104.025345 205.823242,104.062904 196.500000,104.062386 z"/>
  <path fill="#903AE0" opacity="1.000000" stroke="none" d=" M42.909950,442.058289 C45.015743,441.722107 47.121437,441.092285 49.227345,441.091583 C187.793076,441.045166 326.358826,441.047180 464.924561,441.077301 C466.721436,441.077698 468.518250,441.493500 470.664795,442.349243 C471.009796,456.759064 470.921722,470.535706 471.025909,484.310913 C471.115204,496.119476 466.437042,505.036102 455.861023,510.677063 C455.056549,511.106140 454.611908,512.209839 454.000000,513.000000 C322.979095,513.000000 191.958206,513.000000 60.765160,512.709412 C60.135490,511.968201 59.756767,511.351990 59.208878,511.091339 C47.526894,505.534088 42.770611,496.055573 42.948540,483.419128 C43.142628,469.635101 42.939774,455.845459 42.909950,442.058289 z"/>
  <path fill="#ECD7FF" opacity="1.000000" stroke="none" d=" M365.666687,1.000000 C366.917755,2.453871 367.602692,4.139901 368.787170,5.327802 C401.220276,37.853382 433.705719,70.326721 466.174500,102.816719 C467.461731,104.104782 468.671082,105.470688 469.342224,107.171204 C439.355072,107.488800 409.942352,107.419342 380.529633,107.397530 C375.387970,107.393715 370.246216,107.590286 365.104492,107.694305 C364.673431,106.334015 363.867462,104.974075 363.866211,103.613396 C363.835144,69.720833 363.889008,35.828178 363.963928,1.467770 C364.444458,1.000000 364.888885,1.000000 365.666687,1.000000 z"/>
  <path fill="#5401A1" opacity="1.000000" stroke="none" d=" M1.000002,248.250000 C12.429038,236.739395 23.859068,225.479782 35.286293,214.217331 C37.645065,211.892563 39.993404,209.557190 42.653389,207.091751 C43.278507,208.525635 43.863853,210.093002 43.872658,211.663589 C43.940685,223.793213 43.897129,235.923492 43.854801,248.520142 C29.859991,248.999023 15.898539,249.011307 1.468542,249.011810 C1.000000,249.000000 1.000000,248.500000 1.000002,248.250000 z"/>
  <path fill="#5300A0" opacity="1.000000" stroke="none" d=" M471.081085,206.890640 C484.843353,220.520035 498.605591,234.149429 512.683960,247.889404 C513.000000,248.000000 513.000000,248.500000 513.000000,248.750000 C499.028687,249.000641 485.057373,249.001266 470.636383,248.993530 C470.147919,237.301971 470.109131,225.618774 470.317322,213.185699 C470.736542,210.587418 470.908813,208.739029 471.081085,206.890640 z"/>
  <path fill="#ECD6FF" opacity="1.000000" stroke="none" d=" M395.749878,388.764648 C385.763367,397.458893 374.272034,401.291107 361.573425,401.534790 C349.924835,401.758301 338.268951,401.609039 326.616302,401.592773 C325.820282,401.591675 325.024689,401.328766 324.036896,401.153564 C324.036896,363.579437 324.036896,326.157013 324.036896,288.711273 C324.258820,288.506012 324.501007,288.085938 324.743347,288.085876 C339.053680,288.081970 353.449921,287.123871 367.655487,288.357513 C392.865143,290.546814 411.555420,311.020294 412.788666,336.885864 C413.181335,345.120880 412.641541,353.548767 411.287445,361.681763 C409.522614,372.281738 403.991150,381.218689 395.749878,388.764648 M383.986359,329.761047 C380.919006,314.240845 370.851715,306.035309 351.424561,309.761993 C351.424561,333.188751 351.424561,356.593384 351.424561,380.370178 C354.414825,380.370178 357.062958,380.420013 359.708710,380.361816 C373.394012,380.060852 381.984558,373.452698 383.708252,359.898438 C384.932068,350.274689 384.041473,340.381989 383.986359,329.761047 z"/>
  <path fill="#EBD5FF" opacity="1.000000" stroke="none" d=" M306.302856,367.316528 C304.198792,387.818665 290.806519,400.649628 269.021118,402.735474 C255.844254,403.997101 242.997498,402.639435 231.855499,394.421783 C222.354858,387.414612 217.438019,377.612518 217.232056,366.123230 C216.775177,340.636108 217.048416,315.135864 217.044357,289.640991 C217.044281,289.182526 217.298645,288.724030 217.495819,288.057617 C226.302246,288.057617 235.073303,288.057617 244.445023,288.057617 C244.526123,289.871521 244.671265,291.622467 244.672516,293.373535 C244.688110,315.203217 244.678314,337.032867 244.689911,358.862549 C244.691055,361.027222 244.717957,363.196411 244.855331,365.355743 C245.747589,379.380524 258.656891,386.577911 271.129486,379.967682 C277.191132,376.755188 278.926208,371.059662 278.963837,364.812103 C279.106262,341.150574 279.072510,317.487976 279.104126,293.825775 C279.106506,292.035004 279.104462,290.244232 279.104462,288.167297 C288.358032,288.167297 297.120148,288.167297 306.142120,288.167297 C306.320801,288.883331 306.675720,289.643555 306.676270,290.404083 C306.693756,314.899658 306.680634,339.395294 306.652649,363.890900 C306.651489,364.884796 306.462433,365.878479 306.302856,367.316528 z"/>
  <path fill="#ECD5FF" opacity="1.000000" stroke="none" d=" M121.772301,344.704346 C128.300705,326.854034 134.753754,309.392303 141.036758,291.869659 C142.073227,288.979034 143.360504,287.628387 146.669983,287.790039 C152.816269,288.090302 158.996902,287.694641 165.142014,288.006622 C166.649216,288.083130 168.924408,289.455597 169.413666,290.766907 C183.008179,327.201904 196.417862,363.705841 209.851288,400.200897 C209.903717,400.343323 209.857773,400.521942 209.857773,401.626984 C204.181244,401.626984 198.474960,401.627014 192.768692,401.627014 C181.058136,401.627014 181.058136,401.626984 177.519409,390.474060 C174.252396,380.177521 174.252396,380.177521 163.659912,380.177521 C156.499908,380.177521 149.321289,380.488983 142.186737,380.062927 C137.778397,379.799683 135.976578,381.462677 135.054047,385.508606 C134.059326,389.871063 132.663269,394.170837 131.051636,398.347168 C130.535538,399.684601 128.803604,401.436920 127.580078,401.475311 C118.959908,401.746002 110.327271,401.618988 100.878571,401.618988 C107.943733,382.376221 114.791931,363.724426 121.772301,344.704346 M143.918365,357.785950 C144.329285,358.195251 144.736679,358.957275 145.151642,358.961426 C152.421875,359.033997 159.693039,359.013855 167.722382,359.013855 C163.649231,345.879303 159.759323,333.335724 155.512787,319.642059 C151.434128,332.868042 147.726059,344.892303 143.918365,357.785950 z"/>
  <path fill="#7620C6" opacity="1.000000" stroke="none" d=" M471.037659,206.652710 C470.908813,208.739029 470.736542,210.587418 470.298126,212.717255 C469.008331,212.166016 467.901703,211.416397 466.973083,210.488586 C433.774231,177.318390 400.590271,144.133286 367.417847,110.936661 C366.607635,110.125870 365.951294,109.161369 365.163818,107.981430 C370.246216,107.590286 375.387970,107.393715 380.529633,107.397530 C409.942352,107.419342 439.355072,107.488800 469.286316,107.535522 C469.804840,107.528954 469.720215,107.534218 469.792114,108.000175 C469.909363,139.040756 469.939697,169.615417 470.035767,200.189880 C470.041809,202.112564 470.561676,204.033661 470.842529,205.955490 C470.842529,205.955490 470.994263,206.414780 471.037659,206.652710 z"/>
  <path fill="#EAD3FE" opacity="1.000000" stroke="none" d=" M203.000000,185.217896 C240.802322,185.217896 278.104645,185.217697 315.406952,185.217758 C316.739166,185.217758 318.072662,185.182770 319.403381,185.227829 C326.793976,185.478043 331.775665,189.923935 331.761566,196.233109 C331.747589,202.509491 326.697815,206.853561 319.156128,206.855759 C245.717194,206.877258 172.278259,206.877213 98.839333,206.855789 C91.294968,206.853577 86.250275,202.516144 86.231964,196.236496 C86.213585,189.934387 91.201393,185.480377 98.586571,185.227982 C99.917290,185.182495 101.250801,185.217773 102.583023,185.217758 C135.888687,185.217606 169.194336,185.217682 203.000000,185.217896 z"/>
  <path fill="#EDD8FF" opacity="1.000000" stroke="none" d=" M174.000000,166.064636 C148.348648,166.063141 123.197128,166.113724 98.046036,166.031296 C89.475548,166.003204 84.288193,159.154327 87.096184,151.786667 C88.647156,147.717178 91.626991,145.276688 96.088326,144.966690 C97.746841,144.851456 99.417984,144.903717 101.083374,144.903656 C173.039566,144.901291 244.995743,144.901627 316.951935,144.901978 C318.117889,144.901978 319.284546,144.881302 320.449677,144.913467 C326.916962,145.091995 331.519501,149.317108 331.698151,155.223755 C331.880005,161.236938 327.117584,165.995911 320.410980,166.019577 C295.426514,166.107758 270.441589,166.062180 245.456818,166.064163 C221.804550,166.066040 198.152267,166.064590 174.000000,166.064636 z"/>
  <path fill="#ECD7FF" opacity="1.000000" stroke="none" d=" M197.000000,104.062424 C205.823242,104.062904 214.146713,104.025345 222.469666,104.074944 C230.166336,104.120811 234.953262,108.183151 235.014633,114.601547 C235.078430,121.273170 230.632004,125.270638 222.810608,125.277473 C181.360901,125.313728 139.911133,125.314835 98.461433,125.275848 C91.196922,125.269012 86.307449,120.999115 86.266197,114.931656 C86.222595,108.517395 91.140862,104.090736 98.618774,104.081421 C131.245804,104.040779 163.872925,104.062996 197.000000,104.062424 z"/>
  <path fill="#802BD0" opacity="1.000000" stroke="none" d=" M470.907471,205.493805 C470.561676,204.033661 470.041809,202.112564 470.035767,200.189880 C469.939697,169.615417 469.909363,139.040756 469.785583,107.958282 C469.707092,107.450439 469.796814,107.332710 470.049316,107.560165 C470.481079,107.856361 470.660339,107.925110 470.839600,107.993866 C470.883881,140.339951 470.928131,172.686035 470.907471,205.493805 z"/>
  <path fill="#903AE0" opacity="1.000000" stroke="none" d=" M470.878723,107.752914 C470.660339,107.925110 470.481079,107.856361 470.123230,107.556458 C470.269043,107.387520 470.593475,107.449745 470.878723,107.752914 z"/>
  <path fill="#7502E0" opacity="1.000000" stroke="none" d=" M384.040466,330.185181 C384.041473,340.381989 384.932068,350.274689 383.708252,359.898438 C381.984558,373.452698 373.394012,380.060852 359.708710,380.361816 C357.062958,380.420013 354.414825,380.370178 351.424561,380.370178 C351.424561,356.593384 351.424561,333.188751 351.424561,309.761993 C370.851715,306.035309 380.919006,314.240845 384.040466,330.185181 z"/>
  <path fill="#7604E1" opacity="1.000000" stroke="none" d=" M143.968170,357.351257 C147.726059,344.892303 151.434128,332.868042 155.512787,319.642059 C159.759323,333.335724 163.649231,345.879303 167.722382,359.013855 C159.693039,359.013855 152.421875,359.033997 145.151642,358.961426 C144.736679,358.957275 144.329285,358.195251 143.968170,357.351257 z"/>
</svg>