<?xml version="1.0" encoding="utf-8"?>
<svg version="1.1" id="Layer_1" x="0px" y="0px" width="100%" viewBox="0 0 512 512" enable-background="new 0 0 512 512" xmlns="http://www.w3.org/2000/svg">
  <path fill="#FCD462" opacity="1.000000" stroke="none" d=" M1.000000,436.000000 C1.000000,338.978577 1.000000,241.957138 1.468652,144.465240 C15.225746,143.993866 28.514421,144.030991 41.802376,143.949951 C43.738411,143.938156 45.671005,143.362015 48.094643,143.144287 C58.396923,143.401108 68.209671,143.692429 78.022598,143.698792 C142.092239,143.740341 206.161926,143.720245 270.231598,143.720062 C280.715729,143.720032 291.199890,143.735336 301.683990,143.713654 C313.185272,143.689865 321.811066,139.226868 326.517212,128.153351 C330.404022,119.007774 334.687317,110.030716 338.890991,100.614815 C341.418884,94.664528 343.398956,88.822006 346.389465,83.552979 C350.769989,75.834961 357.106781,70.904922 366.747040,70.938316 C408.367676,71.082512 449.989044,70.989571 491.610138,71.033043 C493.553497,71.035072 495.529541,71.371658 497.433655,71.802933 C505.706787,73.676781 509.789185,79.905914 513.000000,87.000000 C513.000000,203.021439 513.000000,319.042877 512.691406,435.712433 C508.275513,449.833679 496.419891,458.119293 482.282166,458.103638 C331.522736,457.936829 180.763031,457.995972 30.003407,458.013794 C23.486145,458.014557 17.888586,455.807800 12.514569,452.165070 C6.562049,448.130219 4.151416,441.868561 1.000000,436.000000 z"/>
  <path fill="#F6C358" opacity="1.000000" stroke="none" d=" M1.000000,121.468620 C2.001001,114.589668 2.681722,108.108757 4.075453,101.784981 C6.365552,91.394104 8.684001,80.971947 11.802086,70.812057 C14.699944,61.369740 23.876698,55.798542 33.400665,55.872398 C72.670403,56.176941 111.950020,56.390396 151.212387,55.771858 C163.662827,55.575714 171.628326,60.442093 178.264908,70.315933 C185.224518,80.670341 193.189941,90.348709 200.348373,100.655830 C149.425446,100.989120 98.869911,100.989120 47.605190,100.989120 C47.605190,115.489853 47.605190,129.268433 47.605190,143.047012 C45.671005,143.362015 43.738411,143.938156 41.802376,143.949951 C28.514421,144.030991 15.225746,143.993866 1.468652,143.997391 C1.000000,136.645752 1.000000,129.291489 1.000000,121.468620 z"/>
  <path fill="#EBF0F3" opacity="1.000000" stroke="none" d=" M48.094643,143.144287 C47.605190,129.268433 47.605190,115.489853 47.605190,100.989120 C98.869911,100.989120 149.425446,100.989120 200.443085,100.974228 C246.566116,100.969063 292.227051,100.978790 338.341492,100.983749 C334.687317,110.030716 330.404022,119.007774 326.517212,128.153351 C321.811066,139.226868 313.185272,143.689865 301.683990,143.713654 C291.199890,143.735336 280.715729,143.720032 270.231598,143.720062 C206.161926,143.720245 142.092239,143.740341 78.022598,143.698792 C68.209671,143.692429 58.396923,143.401108 48.094643,143.144287 z"/>
</svg>